<svg viewBox="0 0 20 21" xmlns="http://www.w3.org/2000/svg" fill-rule="evenodd" clip-rule="evenodd" stroke-linejoin="round" stroke-miterlimit="1.414">
  <path d="M2.6 0h14.9C18.8 0 20 1.2 20 2.6v14.9c0 1.4-1.2 2.6-2.6 2.6H2.6C1.2 20 0 18.8 0 17.4V2.6C0 1.2 1.2 0 2.6 0zm12 2.2c-.5 0-.9.4-.9.9v2.2c0 .5.4.9.9.9h2.3c.5 0 .9-.4.9-.9V3.1c0-.5-.4-.9-.9-.9h-2.3zm3.1 6.3H16c.2.5.3 1.1.3 1.7 0 3.3-2.8 6-6.2 6-3.4 0-6.2-2.7-6.2-6 0-.6.1-1.2.3-1.7h-2v8.4c0 .4.4.8.8.8h13.9c.4 0 .8-.4.8-.8V8.5zM10 6.1c-2.2 0-4 1.7-4 3.9 0 2.1 1.8 3.9 4 3.9s4-1.7 4-3.9-1.8-3.9-4-3.9z" fill="#ababab"/>
</svg>
