<svg viewBox="0 0 20 20" xmlns="http://www.w3.org/2000/svg" fill-rule="evenodd" clip-rule="evenodd" stroke-linejoin="round" stroke-miterlimit="1.414">
  <path d="M18.5 0h-17C.7 0 0 .6 0 1.4v17.1c0 .9.7 1.5 1.5 1.5h17c.8 0 1.5-.6 1.5-1.4V1.4c0-.8-.7-1.4-1.5-1.4zM5.9 17H3V7.5h3V17h-.1zM4.5 6.2c-1 0-1.7-.8-1.7-1.7 0-.9.8-1.7 1.7-1.7.9 0 1.7.8 1.7 1.7 0 .9-.8 1.7-1.7 1.7zM17 17h-3v-4.6c0-1.1 0-2.5-1.5-2.5s-1.8 1.2-1.8 2.5V17h-3V7.5h2.8v1.3c.4-.8 1.4-1.5 2.8-1.5 3 0 3.6 2 3.6 4.5V17h.1z" fill="#ababab" fill-rule="nonzero"/>
</svg>
