<svg viewBox="0 0 20 18" xmlns="http://www.w3.org/2000/svg" fill-rule="evenodd" clip-rule="evenodd" stroke-linejoin="round" stroke-miterlimit="1.414">
  <g fill-rule="nonzero">
    <path d="M13.5.4c-.1-.1-.2 0-.2.1v14l6.1 3.1c.3.2.6 0 .6-.3V3.8c0-.1 0-.1-.1-.2L13.5.4z" fill="#d1d2d3"/>
    <path d="M6.7 11.2L13.3.5c.1-.1.2-.1.3-.1l6.3 3.2c.1 0 .1.1.1.2l-6.6 10.7-6.7-3.3z" fill="#a6a8ac"/>
    <path d="M.7.7C.3.5.2.6.4 1l6.2 10.1 6.7 3.3L6.7 3.7l-.1-.1L.7.7z" fill="#808184"/>
    <path d="M6.7 17.2c0 .3-.2.5-.6.3L.4 14.6c-.2 0-.4-.3-.4-.5V.7C0 .5.2.4.4.5l6.2 3.1c.1 0 .1.1.1.1v13.5z" fill="#595a5c"/>
  </g>
</svg>
