<svg viewBox="0 0 136 56" xmlns="http://www.w3.org/2000/svg" fill-rule="evenodd" clip-rule="evenodd" stroke-linejoin="round" stroke-miterlimit="1.414">
  <g fill="#ababab" fill-rule="nonzero">
    <path d="M41.3 40.8h-5.6l4.8-9.7h.1l.7 9.7zm.3 4.4l.3 3.9H48l-2-22.5h-9.1L25.4 49h6.2l1.9-3.9h8.1v.1zM56.5 39.2h.9l4.4-5.9h5.6l-6 7.6 3.7 8.1h-6l-2.4-6.3h-.9L54.5 49h-5.2l4.8-22.4h5.1l-2.7 12.6zM74 42.5c1.7 0 2.8.1 2.5 1.4-.4 1.6-1.1 1.9-3.2 1.9-.8 0-2.2 0-1.9-1.7.3-1.3 1.3-1.6 2.6-1.6zm1.4 6.5h5.1l2.1-9.8c1.1-5.4-.9-6.1-6.2-6.1-3.7 0-7.2 0-8.3 4.8h5.1c.3-1.4 1.2-1.7 2.4-1.7 2.2 0 2.1.9 1.8 2.4l-.5 2.5h-.2c-.2-1.8-2.4-1.8-3.9-1.8-3.7 0-5.9 1.2-6.7 4.9-.8 4 1.1 4.9 4.6 4.9 1.8 0 4.2-.4 5-2.5h.2l-.5 2.4zM90.9 33.3l-.5 2.2h.2c1-1.8 3-2.4 4.8-2.4 2.2 0 4.4.4 4.1 3.1h.2c.7-2.2 3-3.1 5-3.1 3.6 0 5.2 1.5 4.4 5.1L106.9 49h-5.1l1.9-9.1c.3-1.6.5-2.8-1.5-2.8s-2.7 1.3-3 3L97.3 49h-5.1l2-9.5c.2-1.4.4-2.4-1.4-2.4-2.1 0-2.8 1.1-3.1 3L87.8 49h-5.1L86 33.3h4.9zM117.3 42.5c1.7 0 2.8.1 2.5 1.4-.3 1.6-1.1 1.9-3.2 1.9-.8 0-2.2 0-1.9-1.7.3-1.3 1.3-1.6 2.6-1.6zm1.4 6.5h5.1l2.1-9.8c1.1-5.4-.9-6.1-6.2-6.1-3.7 0-7.2 0-8.3 4.8h5.1c.3-1.4 1.2-1.7 2.4-1.7 2.2 0 2.1.9 1.8 2.4l-.5 2.5h-.2c-.2-1.8-2.4-1.8-3.9-1.8-3.7 0-5.9 1.2-6.7 4.9-.9 4 1.1 4.9 4.6 4.9 1.8 0 4.2-.4 5-2.5h.2l-.5 2.4zM131.2 49h-5.1l3.3-15.7h5.1L131.2 49zm4-18.4H130l.8-3.9h5.1l-.7 3.9z"/>
    <g>
      <path d="M28.1 54.4C16.7 51 8.4 40.4 8.4 28c0-12.6 8.5-23.2 20-26.5 1.2-.3.9-1.1-.6-1.1C12.5.3 0 12.7 0 28s12.5 27.7 27.9 27.7c1.4 0 1.5-.9.2-1.3z"/>
      <path d="M13.7 34.5c-.1-.7-.1-1.5-.1-2.2 0-12.1 9.8-22 22-22 11.5 0 14.9 5.1 15.3 4.8.5-.4-4.2-10.5-17.6-10.5-12.1 0-22 9.8-22 22 0 2.8.5 5.5 1.5 7.9.4 1 1 1 .9 0z"/>
      <path d="M22.9 18.7c5.7-2.5 12.9-2.6 19.9-.1 4.7 1.7 7.5 4 7.7 3.9.4-.2-2.8-5.1-8.4-7.3-6.8-2.6-14.2-1.2-19.6 3-.6.4-.3.8.4.5z"/>
    </g>
  </g>
</svg>
