<svg viewBox="0 0 201 49" xmlns="http://www.w3.org/2000/svg" fill-rule="evenodd" clip-rule="evenodd" stroke-linejoin="round" stroke-miterlimit="1.414">
  <g fill="#aaa">
    <path d="M98.5 20.6c-4.3 0-7.5 3.4-7.5 7.8 0 4.3 3.3 7.8 7.5 7.8 2.3 0 4.4-1.2 5.7-2.9v2.1c0 3.4-2.5 6.1-5.7 6.1v1.7c4.1 0 7.5-3.5 7.5-7.8v-7c0-4.4-3.2-7.8-7.5-7.8zm0 13.9c-3.2 0-5.7-2.7-5.7-6.1 0-3.6 2.5-6.1 5.7-6.1s5.7 2.6 5.7 6.1c.1 3.4-2.5 6.1-5.7 6.1zM63.9 20.6c-2.4 0-4.5 1.2-5.9 3v-7.3h-1.7v8.9c0 3.1.2 4.1.2 4.5.6 3.7 3.7 6.5 7.4 6.5 4.1 0 7.5-3.5 7.5-7.8 0-4.4-3.2-7.8-7.5-7.8zm0 13.9c-3.2 0-5.7-2.7-5.7-6.1 0-3.6 2.5-6.1 5.7-6.1s5.7 2.6 5.7 6.1c.1 3.4-2.5 6.1-5.7 6.1z" fill-rule="nonzero"/>
    <path d="M85.9 21h1.8v14.9h-1.8z"/>
    <path d="M147.8 32l-.1.1c-1.4 1.6-3 2.4-4.7 2.4-3.3 0-5.8-2.7-5.8-6.1 0-3.5 2.5-6.1 5.7-6.1 2.1 0 3.5 1.1 4.7 2.3l.1.1 1.3-1.3-.1-.1c-1.2-1.3-3-2.7-6-2.7-4.2 0-7.6 3.5-7.6 7.8s3.4 7.8 7.6 7.8c2.4 0 4.3-.9 6.1-2.9l.1-.1-1.3-1.2zM158.7 20.6c-4.3 0-7.7 3.4-7.7 7.8s3.3 7.8 7.6 7.8 7.7-3.4 7.7-7.8-3.3-7.8-7.6-7.8m0 13.9c-3.3 0-5.8-2.7-5.8-6.1 0-3.5 2.5-6.1 5.7-6.1 3.3 0 5.8 2.7 5.8 6.1v.1c0 3.4-2.5 6-5.7 6M179.9 21s-5.1 11.9-5.4 12.7c-.3-.8-5.4-12.7-5.4-12.7h-2l6.7 15h1.4l6.7-15h-2zM196.4 28.5c0-4.6-2.8-7.9-6.9-7.9-4 0-7.1 3.4-7.1 7.8 0 4.5 3.1 7.8 7.3 7.8 2.5 0 4.3-.8 6.2-2.8l.1-.1-1.2-1.1-.1.1c-1.4 1.5-3 2.2-4.9 2.2-2.9 0-5.2-2.2-5.5-5.4h12l.1-.6zm-6.9-6.2c3.3 0 4.8 2.8 5 5.3h-10.1c.3-3.1 2.4-5.3 5.1-5.3M116.7 20.6c-2.2 0-3.9.9-5.1 2.7v-7h-1.8v19.6h1.8v-8.6c0-2.9 2-5 4.9-5 2.8 0 4.4 1.8 4.4 4.8v8.8h1.8v-9.1c0-3.8-2.3-6.2-6-6.2M82.2 21c-2.5 0-4.8 1.2-6.3 3.2-.9 1.3-1.4 2.9-1.4 4.6v7.1h1.8v-7.2c0-3.4 2.6-6.1 5.9-6.1h.3V21h-.3zM133.5 36.1v-1.7c-1.5 0-2.9-.3-3.9-1.3-.7-.7-1.2-1.8-1.2-2.9v-7.6h5.1V21h-5.1v-4.6h-1.8v13.9c0 1.4.5 2.8 1.4 3.9 1.3 1.3 3.1 1.9 5.5 1.9z" fill-rule="nonzero"/>
    <g fill-rule="nonzero">
      <path d="M35.2 25.3c0 .2-.1.4-.1.5l-2.3 3.9-2.6 4.6c-.5.9-1.5 1.5-2.6 1.5h-9.9c-.6 0-1.1-.5-1.1-1.1 0-.2.1-.4.1-.5l2.6-4.5 2.3-4c.5-.9 1.5-1.5 2.6-1.5h9.9c.7 0 1.1.5 1.1 1.1zm0-3.5c0-.2-.1-.4-.1-.5l-2.3-3.9-2.6-4.6c-.5-.9-1.5-1.5-2.6-1.5h-9.9c-.6 0-1.1.5-1.1 1.1 0 .2.1.4.1.5l2.6 4.5 2.3 4c.5.9 1.5 1.5 2.6 1.5h9.9c.7 0 1.1-.5 1.1-1.1zM50.2 25.3c0 .2-.1.4-.1.5l-2.3 3.9-2.6 4.6c-.5.9-1.5 1.5-2.6 1.5h-9.9c-.6 0-1.1-.5-1.1-1.1 0-.2.1-.4.1-.5l2.6-4.5 2.3-4c.5-.9 1.5-1.5 2.6-1.5h9.9c.6 0 1.1.5 1.1 1.1zm-18.6 13c0 .2.1.4.1.5l2.3 3.9 2.6 4.6c.5.9 1.5 1.5 2.6 1.5h9.9c.6 0 1.1-.5 1.1-1.1 0-.2-.1-.4-.1-.5l-2.6-4.5-2.3-4c-.5-.9-1.5-1.5-2.6-1.5h-9.9c-.6 0-1.1.5-1.1 1.1zM15.6 13.6l4.9 8.6c.6 1 .5 2.1 0 3l-2.3 4-2.6 4.5c-.1.2-.2.3-.4.4-.5.3-1.2.1-1.5-.4l-4.9-8.6c-.6-1-.5-2.1 0-3l2.7-4.6 2.3-3.9c.1-.2.2-.3.4-.4.4-.3 1.1-.1 1.4.4zM6.7.3c-.1.1-.3.3-.3.4l-2.3 4-2.7 4.5c-.5.9-.6 2 0 3l4.9 8.6c.3.5.9.7 1.5.4.2-.1.3-.2.4-.4l2.6-4.5 2.3-4c.5-.9.6-2 0-3L8.2.7C7.9.2 7.3.1 6.7.3z"/>
    </g>
    <path d="M198.7 21.7c0-.6.5-1.2 1.1-1.2.6 0 1.1.5 1.1 1.1 0 .6-.5 1.1-1.1 1.1-.6.2-1.1-.3-1.1-1zm2.2 0c0-.6-.4-1-1-1s-1 .5-1 1c0 .6.4 1 1 1 .5.1 1-.4 1-1zm-1.5-.6h.5c.2 0 .3 0 .4.1.1.1.1.1.1.3 0 .2-.1.3-.3.4l.3.5h-.3l-.3-.4h-.2v.4h-.2v-1.3zm.5.6c.1 0 .2-.1.2-.2s-.1-.2-.2-.2h-.3v.4h.3z" fill-rule="nonzero"/>
  </g>
</svg>
