<svg viewBox="0 0 134 22" xmlns="http://www.w3.org/2000/svg" fill-rule="evenodd" clip-rule="evenodd" stroke-linejoin="round" stroke-miterlimit="1.414">
  <g fill="#ababab">
    <g fill-rule="nonzero">
      <path d="M25.8 11.1C25.8 5 30.6.5 36.5.5 42.4.5 47.2 5 47.2 11.1s-4.8 10.6-10.7 10.6c-5.9.1-10.7-4.4-10.7-10.6zm18 0c0-4.4-3-7.7-7.3-7.7s-7.3 3.3-7.3 7.7 3 7.7 7.3 7.7 7.3-3.3 7.3-7.7zM49.1 11.1C49.1 5 53.9.5 59.8.5 65.7.5 70.5 5 70.5 11.1s-4.8 10.6-10.7 10.6c-6 .1-10.7-4.4-10.7-10.6zm18 0c0-4.4-3-7.7-7.3-7.7s-7.3 3.3-7.3 7.7 3 7.7 7.3 7.7 7.3-3.3 7.3-7.7zM68.7.8h3.6l5.9 10.8L84 .8h3.4l-7.6 14.1v6.6h-3.3v-6.6L68.7.8zM85.2 21.5h-3.3L91 .4h.2l9.1 21.1h-3.4l-1.2-2.9h-9.3l-1.2 2.9zm5.9-14l-3.4 8.2h6.8l-3.4-8.2zM102 .8h3.3v17.8h9.3l-1.2 2.9H102V.8zm16.9 20.7h-3.3L124.7.4h.2l9.1 21.1h-3.4l-1.2-2.9h-9.3l-1.2 2.9zm5.9-14l-3.4 8.2h6.8l-3.4-8.2zM133 3.6c-.4.4-.9.6-1.4.6-.5 0-1-.2-1.4-.6-.4-.4-.6-.9-.6-1.4 0-.5.2-1 .6-1.4.4-.4.8-.6 1.4-.6.5 0 1 .2 1.4.6.4.4.6.8.6 1.4-.1.5-.3 1-.6 1.4zM130.4 1c-.3.3-.5.7-.5 1.2s.2.9.5 1.2c.3.3.7.5 1.2.5s.9-.2 1.2-.5c.3-.3.5-.7.5-1.2s-.2-.9-.5-1.2c-.3-.3-.7-.5-1.2-.5s-.9.2-1.2.5zm1.1.1c.3 0 .5 0 .6.1.2.1.3.3.3.5s-.1.3-.2.4c-.1 0-.2.1-.3.1.2 0 .3.1.4.2.1.1.1.2.1.3v.6h-.4V3c0-.2-.1-.4-.2-.5-.1 0-.2-.1-.4-.1h-.3v.9h-.4V1.1h.8zm.4.3c-.1-.1-.2-.1-.5-.1h-.3v.8h.7c.1-.1.2-.2.2-.3.1-.2 0-.3-.1-.4z"/>
    </g>
    <circle cx="10.8" cy="4" r="3.4"/>
    <circle cx="3.4" cy="9.3" r="3.4"/>
    <circle cx="6.2" cy="18" r="3.4"/>
    <circle cx="15.4" cy="18" r="3.4"/>
    <circle cx="18.2" cy="9.3" r="3.4"/>
  </g>
</svg>
