<svg viewBox="0 0 44 37" xmlns="http://www.w3.org/2000/svg" fill-rule="evenodd" clip-rule="evenodd" stroke-linejoin="round" stroke-miterlimit="1.414">
  <path d="M44 4.9c-1.6.7-3.4 1.2-5.2 1.4 1.9-1.1 3.3-2.9 4-5-1.7 1-3.7 1.8-5.7 2.2-1.6-1.8-4-2.9-6.6-2.9-5 0-9 4-9 9 0 .7.1 1.4.2 2.1-7.5-.4-14.2-4-18.6-9.4-.8 1.3-1.3 2.9-1.3 4.5 0 3.1 1.6 5.9 4 7.5-1.5 0-2.9-.5-4.1-1.1v.1c0 4.4 3.1 8 7.2 8.9-.8.2-1.6.3-2.4.3-.6 0-1.1-.1-1.7-.2 1.1 3.6 4.5 6.2 8.4 6.3-3.1 2.4-7 3.9-11.2 3.9-.7 0-1.4 0-2.2-.1 4 2.6 8.7 4.1 13.8 4.1 16.6 0 25.7-13.8 25.7-25.7V9.6c2-1.3 3.5-2.9 4.7-4.7z" fill="#ababab" fill-rule="nonzero"/>
</svg>
