<svg viewBox="0 0 110 57" xmlns="http://www.w3.org/2000/svg" fill-rule="evenodd" clip-rule="evenodd" stroke-miterlimit="1.414">
  <path d="M33.8 56.5h-.2l-.2-.4h-.6l-.2.4h-.2l.5-1.4h.2l.7 1.4zm-.8-.6h.5l-.2-.7-.3.7zM73.8 55.4c0 .2-.1.3-.3.3.2 0 .3.2.3.3 0 .2-.2.4-.5.4h-.5V55h.5c.4.1.5.2.5.4zm-.2.1c0-.2-.1-.2-.3-.2H73v.5h.3c.3-.1.3-.2.3-.3zm.1.6c0-.2-.1-.3-.3-.3H73v.5h.3c.3.1.4 0 .4-.2z" fill="#3d3d3d" fill-rule="nonzero"/>
  <path d="M51.3 52.6h44.1" fill="none" stroke-width=".25" stroke="#3d3d3d"/>
  <path fill="#3d3d3d" d="M51.2 51.8h.2v1.6h-.2zM95.2 51.8h.2v1.6h-.2z"/>
  <path d="M15.1 52.6h36.2" fill="none" stroke-width=".25" stroke="#3d3d3d"/>
  <path fill="#3d3d3d" d="M15 51.8h.2v1.6H15zM51.2 51.8h.2v1.6h-.2z"/>
  <path fill="#3d3d3d" fill-opacity=".1" d="M15 1.1h80.5v48.5H15z"/>
  <path fill="none" stroke-width=".5" stroke="#3d3d3d" d="M15 1.1h80.5v48.5H15z"/>
  <path d="M55.3 18.8v13.1M48.7 25.4h13.1" fill="none" stroke-width=".5" stroke-linejoin="round" stroke="#3d3d3d"/>
  <circle cx="55.3" cy="25.4" r="14" fill="none" stroke-width=".5" stroke-linecap="round" stroke-linejoin="round" stroke-dasharray="0,1" stroke="#3d3d3d"/>
  <circle cx="15" cy="25.4" r="5.8" fill="none" stroke-width=".25" stroke="#3d3d3d"/>
  <circle cx="15" cy="25.4" r="14" fill="none" stroke-width=".25" stroke="#3d3d3d"/>
  <path d="M30.1 25.4h10.6" fill="none" stroke-width=".5" stroke-linecap="round" stroke-linejoin="round" stroke-dasharray="0,1.02" stroke="#3d3d3d"/>
  <path d="M9.2 25.4c0-3.2 2.6-5.8 5.8-5.8 3.2 0 5.8 2.6 5.8 5.8M20.8 25.4c0 3.2-2.6 5.8-5.8 5.8-3.2 0-5.8-2.6-5.8-5.8H1c0 7.7 6.3 14 14 14s14-6.3 14-14h-8.2z" fill="#3d3d3d" fill-rule="nonzero"/>
  <path d="M107.3 32.2L95.5 39l-11.8-6.8V18.6l11.8-6.8 11.8 6.8v13.6z" fill="none" stroke-width=".25" stroke="#3d3d3d"/>
  <path d="M108.3 32.8l-12.8 7.4-12.9-7.4V18l12.9-7.4 12.8 7.4v14.8z" fill="none" stroke-width=".25" stroke="#3d3d3d"/>
  <path d="M106.2 31.6l-10.7 6.2-10.7-6.2V19.2L95.5 13l10.7 6.2v12.4z" fill="none" stroke-width=".25" stroke="#3d3d3d"/>
  <path d="M81.6 25.4v-8l13.9-8.1 13.9 8.1v8H81.6z" fill="#3d3d3d" fill-opacity=".4" fill-rule="nonzero"/>
  <g>
    <path d="M82.8 38l12.7-12.6" fill="none" stroke-width=".5" stroke-linecap="round" stroke-linejoin="round" stroke-dasharray="0,1" stroke="#3d3d3d"/>
    <path d="M81.6 39.3l2.5-1.1-1.2-.3-.3-1.1-1 2.5z" fill="#3d3d3d" fill-rule="nonzero"/>
  </g>
  <g fill="#3d3d3d" fill-rule="nonzero">
    <path d="M90.1 24.4h.2v1.4h-.2zM91.5 25.6l.4-1.2h.2v1.4H92v-1.2l-.4 1.2h-.2l-.4-1.2v1.2h-.2v-1.4h.2l.5 1.2zM92.8 24.6c.1-.1.3-.2.5-.2.3 0 .4.2.5.4h-.2c-.1-.2-.2-.3-.4-.3-.3 0-.4.2-.4.6 0 .4.2.6.4.6.1 0 .2 0 .3-.1.1-.1.1-.2.1-.3h-.4v-.1h.6v.7h-.1v-.2c-.1.2-.2.3-.4.3s-.3-.1-.4-.2c-.1-.1-.2-.3-.2-.5 0-.4 0-.6.1-.7zM94.3 25.6h.2v.2h-.2zM95 24.6c.1-.1.2-.2.4-.2s.3.1.4.2c.1.1.2.3.2.5s-.1.4-.2.5c-.1.1-.2.2-.4.2s-.3-.1-.4-.2c-.1-.1-.2-.3-.2-.5.1-.2.1-.4.2-.5zm.4-.1c-.2 0-.4.2-.4.6 0 .4.2.6.4.6s.4-.2.4-.6c0-.4-.1-.6-.4-.6zM96.7 24.6s-.1 0-.1.1h-.2v-.1c.1 0 .2-.1.3-.2h.1v1.3h.3v.1h-.8v-.1h.3v-1.1h.1zM97.7 24.6c.1-.1.2-.2.4-.2s.3.1.4.2c.1.1.2.3.2.5s-.1.4-.2.5c-.1.1-.2.2-.4.2s-.3-.1-.4-.2c-.1-.1-.2-.3-.2-.5s.1-.4.2-.5zm.4-.1c-.2 0-.4.2-.4.6 0 .4.2.6.4.6s.4-.2.4-.6c0-.4-.2-.6-.4-.6zM98.9 24.4h1v.1c-.2.2-.3.4-.4.6-.1.2-.1.4-.1.6h-.2c.1-.5.2-.9.5-1.3h-.8zM100 25.4l.7-1h.2v.9h.2v.1h-.2v.3h-.2v-.3h-.7zm.2-.1h.6v-.8l-.6.8zM101.6 24.6c.1-.1.2-.2.4-.2s.3.1.4.3l-.1.1c-.1-.2-.2-.2-.3-.2-.1 0-.2.1-.3.2-.1.1-.1.3-.1.4.1-.1.2-.2.4-.2.1 0 .3 0 .3.1.1.1.1.2.1.3 0 .1 0 .2-.1.3-.1.1-.2.1-.4.1-.1 0-.3-.1-.4-.2-.1-.1-.2-.3-.2-.6.2-.1.2-.3.3-.4zm.4.4c-.1 0-.2 0-.3.1-.1.1-.1.1-.1.2s0 .2.1.3c.1.1.2.1.2.1.2 0 .3-.1.3-.4.2-.2 0-.3-.2-.3z"/>
  </g>
</svg>
