<svg viewBox="0 0 126 94" xmlns="http://www.w3.org/2000/svg" fill-rule="evenodd" clip-rule="evenodd" stroke-linecap="round" stroke-linejoin="round" stroke-miterlimit="1.414">
  <path d="M12.5 64.4l6.7-46.3h87.7l6.8 46.3H12.5z" fill="#3d3d3d" fill-opacity=".1" fill-rule="nonzero"/>
  <path d="M106.5 18.6l6.6 45.3H13l6.6-45.3h86.9m.4-.5H19.1l-6.7 46.3h101.2l-6.7-46.3z" fill="#3d3d3d" fill-rule="nonzero"/>
  <path d="M101.9 33.9l5.9 40.7H18.2l5.9-40.7h77.8m.2-.3H24l-6 41.2h90.2l-6.1-41.2z" fill="#3d3d3d" fill-rule="nonzero"/>
  <g fill="#3d3d3d" fill-rule="nonzero">
    <path d="M47.3 9.3h1.3v.2H47V7.1h.3v2.2zM49.4 7.1h.3v2.4h-.3zM51.3 9.2l.7-2.1h.3l-.8 2.4h-.3l-.8-2.4h.3l.6 2.1zM54.6 7.3h-1.3v.8h1.1v.2h-1.1v.9h1.3v.2H53V7h1.6v.3zM57.8 9.2l.7-2.1h.3L58 9.5h-.3l-.8-2.4h.3l.6 2.1zM59.5 7.1h.3v2.4h-.3zM62.6 8.3c0 .8-.4 1.2-1.2 1.2h-.8V7.1h.8c.8 0 1.2.4 1.2 1.2zm-.3 0c0-.6-.3-1-.9-1h-.5v2h.5c.6 0 .9-.4.9-1zM65 7.3h-1.3v.8h1.1v.2h-1.1v.9H65v.2h-1.6V7H65v.3zM65.9 7.4c.2-.2.5-.3.8-.3.3 0 .6.1.8.3.2.2.3.5.3.9s-.1.7-.3.9c-.2.2-.5.3-.8.3-.3 0-.6-.1-.8-.3-.2-.2-.3-.5-.3-.9s.1-.7.3-.9zm.8-.1c-.5 0-.8.3-.8 1s.3 1 .8 1 .8-.3.8-1c-.1-.7-.4-1-.8-1zM71.6 7.3h-1.3v.9h1.1v.2h-1.1v1.1H70V7.1h1.5l.1.2zM74 7.3h-1.3v.8h1.1v.2h-1.1v.9H74v.2h-1.6V7H74v.3zM76.4 7.3h-1.3v.8h1.1v.2h-1.1v.9h1.3v.2h-1.6V7h1.6v.3zM79.2 8.3c0 .8-.4 1.2-1.2 1.2h-.8V7.1h.8c.8 0 1.2.4 1.2 1.2zm-.3 0c0-.6-.3-1-.9-1h-.5v2h.5c.7 0 .9-.4.9-1z"/>
  </g>
  <g fill="none" stroke-width=".5" stroke="#3d3d3d">
    <path d="M35.8 91.8l3.4-23.6" stroke-dasharray="0,1.01"/>
    <path d="M40.3 67.7h46.1" stroke-dasharray="0,0.99"/>
    <path d="M87 68.7l3.4 23.6" stroke-dasharray="0,1.01"/>
    <path d="M89.5 92.8H36.1" stroke-dasharray="0,1"/>
  </g>
  <g fill="none" stroke-width=".5" stroke="#3d3d3d">
    <path d="M25.9 83.3l4.7-32.6" stroke-dasharray="0,1.01"/>
    <path d="M31.7 50.2h63.2" stroke-dasharray="0,1"/>
    <path d="M95.6 51.2l4.7 32.6" stroke-dasharray="0,1.01"/>
    <path d="M99.4 84.3H26.2" stroke-dasharray="0,1"/>
  </g>
  <path d="M19.3 13.1h87.6" fill="none" stroke-width=".25" stroke-linecap="butt" stroke-linejoin="miter" stroke="#3d3d3d"/>
  <path fill="#3d3d3d" d="M19.2 12.3h.2v1.6h-.2zM106.7 12.3h.2v1.6h-.2z"/>
  <path d="M112.3 2c-5.5 4.4-25.2 23.3-25.2 65.7" fill="none" stroke-width=".5" stroke-dasharray="0,1" stroke="#3d3d3d"/>
  <path d="M113.7.9l-2.6.8 1.1.4.2 1.2 1.3-2.4z" fill="#3d3d3d" fill-rule="nonzero"/>
  <g>
    <path d="M123.7 38.4C111.6 43.6 90.5 58.6 90.5 93" fill="none" stroke-width=".5" stroke-dasharray="0,1" stroke="#3d3d3d"/>
    <path d="M125.3 37.8h-2.7l1 .7-.2 1.2 1.9-1.9z" fill="#3d3d3d" fill-rule="nonzero"/>
  </g>
  <g>
    <path d="M14 2c5.5 4.4 25.2 23.3 25.2 65.7" fill="none" stroke-width=".5" stroke-dasharray="0,1" stroke="#3d3d3d"/>
    <path d="M12.6.9l1.3 2.4.1-1.2 1.1-.4-2.5-.8z" fill="#3d3d3d" fill-rule="nonzero"/>
  </g>
  <g>
    <path d="M2.5 38.4C14.6 43.6 35.7 58.6 35.7 93" fill="none" stroke-width=".5" stroke-dasharray="0,1" stroke="#3d3d3d"/>
    <path d="M.9 37.8l1.9 1.9-.1-1.2.9-.7H.9z" fill="#3d3d3d" fill-rule="nonzero"/>
  </g>
</svg>
