<svg viewBox="0 0 88 76" xmlns="http://www.w3.org/2000/svg" fill-rule="evenodd" clip-rule="evenodd" stroke-linecap="round" stroke-miterlimit="1.414">
  <path fill="#3d3d3d" fill-opacity=".1" d="M9.3 16.3h70v42.2h-70z"/>
  <path fill="#3d3d3d" fill-opacity=".4" d="M4.1 20.3h80.5v48.5H4.1z"/>
  <path d="M84 20.8v47.5H4.5V20.8H84m.5-.5H4v48.5h80.5V20.3z" fill="#3d3d3d" fill-rule="nonzero"/>
  <path d="M79.1 16.5v41.7H9.6V16.5h69.5m.2-.2h-70v42.2h70V16.3z" fill="#3d3d3d" fill-rule="nonzero"/>
  <g fill="none" stroke-width=".5" stroke-dasharray="0,1" stroke="#3d3d3d">
    <path d="M74.3 13.3V48M73.3 48.5H14.8M14.3 47.5V12.8M15.3 12.3h58.5"/>
  </g>
  <path fill="#3d3d3d" fill-opacity=".1" d="M14.3 12.3h60v36.2h-60z"/>
  <g fill="none" stroke-width=".5" stroke-dasharray="0,1" stroke="#3d3d3d">
    <path d="M69.3 9.3v28.6M68.3 38.4H19.8M19.3 37.4V8.8M20.3 8.3h48.5"/>
  </g>
  <g fill="#3d3d3d" fill-rule="nonzero">
    <path d="M29.9 1.5h.4v-.4h.1v.4h.4v.1h-.4V2h-.1v-.4h-.4v-.1zM31.9 1.5c0-.1.1-.1.1-.2 0-.2-.1-.3-.3-.3-.2 0-.3.1-.4.3h-.2c.1-.3.2-.4.5-.4.1 0 .2 0 .3.1.1.1.1.2.1.3 0 .1 0 .2-.1.2-.1.1-.1.2-.3.3l-.3.3h.7v.1h-.9v-.1l.4-.4c.3-.1.3-.2.4-.2zM32.8 1.1s-.1 0-.1.1h-.2v-.1c.1 0 .2-.1.3-.2h.1v1.3h.3v.1h-.8v-.1h.3l.1-1.1zM33.5.9h1V1c-.2.2-.3.4-.4.6-.1.2-.1.4-.1.6h-.2c.1-.5.2-.9.5-1.3h-.8zM34.9 1c.1-.1.1-.1.3-.1.1 0 .2 0 .3.1.1.1.1.2.1.3 0 .1 0 .2-.1.3-.1.1-.1.1-.3.1-.1 0-.2 0-.3-.1-.1-.1-.1-.2-.1-.3 0-.2 0-.2.1-.3zm.2 0c-.1 0-.2.1-.2.3 0 .2.1.3.2.3s.2-.1.2-.3c0-.2 0-.3-.2-.3zm.1 1.3L36 .9h.1l-.9 1.4zm.6-.6c.1-.1.1-.1.3-.1.1 0 .2 0 .3.1.1.1.1.2.1.3 0 .1 0 .2-.1.3-.1.1-.1.1-.3.1-.1 0-.2 0-.3-.1-.1-.1-.1-.2-.1-.3 0-.2 0-.3.1-.3zm.2 0c-.1 0-.2.1-.2.3 0 .2.1.3.2.3s.2-.1.2-.3c0-.2 0-.3-.2-.3zM38.5 2.3h-.2l-.2-.4h-.6l-.2.4h-.2l.5-1.4h.2l.7 1.4zm-.8-.6h.5L38 1l-.3.7zM40 1.6c0 .5-.2.7-.7.7h-.4V.9h.4c.5 0 .7.2.7.7zm-.1 0c0-.4-.2-.6-.5-.6h-.3v1.1h.3c.3.1.5-.1.5-.5zM41.6 1.6c0 .5-.2.7-.7.7h-.4V.9h.4c.5 0 .7.2.7.7zm-.2 0c0-.4-.2-.6-.5-.6h-.3v1.1h.3c.4.1.5-.1.5-.5zM42 .9h.2v1.4H42zM42.6.9h1V1h-.4v1.3H43V1h-.4V.9zM44 .9h.2v1.4H44zM44.8 1.1c.1-.1.3-.2.5-.2s.3.1.4.2c.1.1.2.3.2.5s-.1.4-.2.5c-.1.1-.3.2-.4.2-.2 0-.3-.1-.5-.2-.1-.1-.2-.3-.2-.5.1-.2.1-.4.2-.5zm.5-.1c-.3 0-.4.2-.4.6 0 .4.2.6.4.6.3 0 .4-.2.4-.6 0-.4-.2-.6-.4-.6zM47.2 2.1V.9h.2v1.4h-.2l-.7-1.2v1.2h-.2V.9h.2l.7 1.2zM49 2.3h-.2l-.2-.4H48l-.2.4h-.2l.5-1.4h.2l.7 1.4zm-.9-.6h.5l-.2-.7-.3.7zM49.5 2.2h.7v.1h-.9V.9h.2v1.3zM51.4 1.1c.1-.1.3-.2.4-.2.3 0 .5.1.5.4h-.2c0-.2-.2-.3-.4-.3-.1 0-.2 0-.3.2-.1.1-.1.2-.1.4s0 .4.1.4c.1.1.2.1.3.1.2 0 .3-.1.4-.3h.2c-.1.3-.3.4-.5.4s-.3-.1-.4-.2c-.1-.1-.2-.3-.2-.5.1-.1.1-.3.2-.4zM53 2.2h.7v.1h-.9V.9h.2v1.3zM54.1.9h.2v1.4h-.2zM54.9 1.1c.1-.1.3-.2.4-.2.3 0 .5.1.5.4h-.2c0-.2-.2-.3-.4-.3-.1 0-.2 0-.3.2-.1.1-.1.2-.1.4s0 .4.1.4c.1.1.2.1.3.1.2 0 .3-.1.4-.3h.2c-.1.3-.3.4-.5.4s-.3-.1-.4-.2c-.1-.1-.2-.3-.2-.5.1-.1.1-.3.2-.4zM56.5 1.7l.7-.8h.2l-.5.6.5.8h-.2l-.4-.7-.3.3v.4h-.2V.9h.2v.8zM58.2 2.2c.1 0 .2 0 .2-.1.1 0 .1-.1.1-.2s-.1-.2-.3-.3H58c-.3-.1-.4-.2-.4-.4 0-.1 0-.2.1-.3.1-.1.2-.1.4-.1.3 0 .4.1.5.4h-.1c0-.2-.2-.3-.3-.3-.2 0-.3.1-.3.2s.1.2.2.2h.2c.3.1.4.2.4.4 0 .1 0 .2-.2.3-.1.1-.2.1-.4.1-.3 0-.5-.2-.6-.4h.2c.2.4.3.5.5.5z"/>
  </g>
  <path d="M4.2 4.3h80.2" fill="none" stroke-width=".25" stroke-linecap="butt" stroke="#3d3d3d"/>
  <path fill="#3d3d3d" d="M4.1 3.5h.2v1.6h-.2zM84.3 3.5h.2v1.6h-.2z"/>
  <path d="M4.1 4.3v16M84.5 4.3v16" fill="none" stroke-width=".25" stroke-dasharray="0,1" stroke="#3d3d3d"/>
  <g>
    <path d="M87.1 73.8L66.2 32.2" fill="none" stroke-width=".5" stroke-dasharray="0,1" stroke="#3d3d3d"/>
    <path d="M87.9 75.4l-.3-2.7-.6 1-1.2-.1 2.1 1.8z" fill="#3d3d3d" fill-rule="nonzero"/>
    <circle cx="66.2" cy="32.3" r=".5" fill="#3d3d3d"/>
  </g>
  <g>
    <path d="M1.7 73.8l20.8-41.6" fill="none" stroke-width=".5" stroke-dasharray="0,1" stroke="#3d3d3d"/>
    <path d="M.9 75.4l2-1.8-1.2.1-.6-1-.2 2.7z" fill="#3d3d3d" fill-rule="nonzero"/>
    <circle cx="22.5" cy="32.3" r=".5" fill="#3d3d3d"/>
  </g>
</svg>
