<?xml version="1.0" standalone="no"?><!DOCTYPE svg PUBLIC "-//W3C//DTD SVG 1.1//EN" "http://www.w3.org/Graphics/SVG/1.1/DTD/svg11.dtd"><svg width="100%" height="100%" viewBox="0 0 90 72" version="1.1" xmlns="http://www.w3.org/2000/svg" xmlns:xlink="http://www.w3.org/1999/xlink" xml:space="preserve" style="fill-rule:evenodd;clip-rule:evenodd;stroke-miterlimit:1.41421;"><g><rect x="8.9" y="0.4" width="80.5" height="48.5" style="fill:#3d3d3d;fill-opacity:0.1;"/><rect x="0.8" y="8.4" width="80.5" height="48.5" style="fill:#3d3d3d;fill-opacity:0.25;"/><rect x="4.9" y="4.4" width="80.5" height="48.5" style="fill:#3d3d3d;fill-opacity:0.1;"/><path d="M80.7,8.9l0,47.5l-79.5,0l0,-47.5l79.5,0M81.2,8.4l-80.5,0l0,48.5l80.5,0l0,-48.5Z" style="fill:#3d3d3d;fill-rule:nonzero;"/><g><path d="M4,63.1c0,1.2 -0.6,1.8 -1.7,1.8l-1.1,0l0,-3.5l1.1,0c1,0 1.7,0.6 1.7,1.7ZM3.5,63.1c0,-0.9 -0.4,-1.4 -1.3,-1.4l-0.7,0l0,2.8l0.7,0c1,0.1 1.3,-0.4 1.3,-1.4Z" style="fill:#3d3d3d;fill-rule:nonzero;"/><path d="M4.9,62l-0.4,0l0,-0.5l0.4,0l0,0.5ZM4.9,64.9l-0.4,0l0,-2.5l0.4,0l0,2.5Z" style="fill:#3d3d3d;fill-rule:nonzero;"/><path d="M6.5,64.7c0.4,0 0.7,-0.2 0.7,-0.4c0,-0.2 -0.1,-0.3 -0.5,-0.4l-0.3,-0.1c-0.5,-0.1 -0.8,-0.4 -0.8,-0.7c0,-0.2 0.1,-0.4 0.3,-0.5c0.2,-0.1 0.4,-0.2 0.7,-0.2c0.5,0 0.9,0.3 1,0.7l-0.3,0.1c-0.1,-0.3 -0.3,-0.5 -0.6,-0.5c-0.3,0 -0.6,0.2 -0.6,0.4c0,0.2 0.1,0.3 0.4,0.4l0.3,0.1c0.6,0.1 0.8,0.4 0.8,0.7c0,0.2 -0.1,0.4 -0.3,0.5c-0.2,0.1 -0.4,0.2 -0.8,0.2c-0.6,0 -1,-0.3 -1.1,-0.8l0.4,-0.1c0,0.4 0.3,0.6 0.7,0.6Z" style="fill:#3d3d3d;fill-rule:nonzero;"/><path d="M8.2,62.7c0.2,-0.2 0.5,-0.4 0.9,-0.4c0.5,0 0.9,0.3 1,0.8l-0.4,0.1c-0.1,-0.4 -0.3,-0.6 -0.7,-0.6c-0.5,0 -0.8,0.4 -0.8,1c0,0.6 0.3,1 0.8,1c0.3,0 0.6,-0.2 0.7,-0.6l0.4,0.1c-0.1,0.6 -0.5,0.9 -1,0.9c-0.3,0 -0.6,-0.1 -0.8,-0.3c-0.2,-0.2 -0.3,-0.6 -0.3,-1c-0.1,-0.4 0,-0.7 0.2,-1Z" style="fill:#3d3d3d;fill-rule:nonzero;"/><path d="M10.8,62.7c0.2,-0.2 0.5,-0.4 0.9,-0.4c0.4,0 0.7,0.1 0.9,0.4c0.2,0.2 0.3,0.6 0.3,0.9c0,0.4 -0.1,0.7 -0.3,0.9c-0.2,0.2 -0.5,0.4 -0.9,0.4c-0.4,0 -0.7,-0.1 -0.9,-0.4c-0.2,-0.2 -0.3,-0.6 -0.3,-0.9c0,-0.3 0.1,-0.7 0.3,-0.9ZM11.7,62.7c-0.5,0 -0.8,0.4 -0.8,1c0,0.6 0.3,1 0.8,1c0.5,0 0.8,-0.4 0.8,-1c0,-0.7 -0.4,-1 -0.8,-1Z" style="fill:#3d3d3d;fill-rule:nonzero;"/><path d="M14.2,64.5l0.7,-2.1l0.4,0l-0.9,2.5l-0.5,0l-0.9,-2.5l0.4,0l0.8,2.1Z" style="fill:#3d3d3d;fill-rule:nonzero;"/><path d="M15.8,62.7c0.2,-0.2 0.5,-0.4 0.9,-0.4c0.7,0 1.1,0.5 1.1,1.3l0,0.1l-1.9,0c0,0.6 0.3,1 0.8,1c0.3,0 0.5,-0.1 0.7,-0.5l0.3,0.1c-0.1,0.2 -0.3,0.4 -0.5,0.5c-0.2,0.1 -0.4,0.2 -0.6,0.2c-0.4,0 -0.7,-0.1 -0.9,-0.4c-0.2,-0.2 -0.3,-0.6 -0.3,-0.9c0.1,-0.4 0.2,-0.7 0.4,-1ZM16.7,62.7c-0.4,0 -0.7,0.3 -0.8,0.8l1.4,0c0,-0.6 -0.2,-0.8 -0.6,-0.8Z" style="fill:#3d3d3d;fill-rule:nonzero;"/><path d="M18.7,63c0.2,-0.4 0.5,-0.6 0.9,-0.6l0.1,0l0,0.4l-0.1,0c-0.5,0 -0.8,0.3 -0.8,0.9l0,1.2l-0.4,0l0,-2.5l0.4,0l-0.1,0.6Z" style="fill:#3d3d3d;fill-rule:nonzero;"/><path d="M21.7,64.6l1.8,0l0,0.3l-2.2,0l0,-3.5l0.4,0l0,3.2Z" style="fill:#3d3d3d;fill-rule:nonzero;"/><path d="M24.1,63.7c0.2,-0.2 0.6,-0.3 1.1,-0.3l0.3,0l0,-0.1c0,-0.4 -0.2,-0.6 -0.6,-0.6c-0.3,0 -0.5,0.2 -0.6,0.5l-0.4,-0.1c0.1,-0.4 0.5,-0.7 1,-0.7c0.6,0 1,0.4 1,1.1l0,1.5l-0.4,0l0,-0.4c-0.2,0.3 -0.5,0.5 -0.9,0.5c-0.2,0 -0.4,-0.1 -0.6,-0.2c-0.2,-0.1 -0.2,-0.3 -0.2,-0.5c0,-0.4 0.1,-0.6 0.3,-0.7ZM25.2,63.7c-0.4,0 -0.7,0.1 -0.8,0.2c-0.1,0.1 -0.2,0.2 -0.2,0.4c0,0.3 0.2,0.4 0.5,0.4c0.2,0 0.4,-0.1 0.6,-0.2c0.1,-0.1 0.2,-0.3 0.2,-0.5l0,-0.3l-0.3,0Z" style="fill:#3d3d3d;fill-rule:nonzero;"/><path d="M26.8,62.4l0,1.6c0,0.4 0.2,0.7 0.5,0.7c0.5,0 0.8,-0.4 0.8,-1l0,-1.3l0.4,0l0,2.5l-0.4,0l0,-0.5c-0.2,0.4 -0.5,0.6 -0.9,0.6c-0.3,0 -0.5,-0.1 -0.6,-0.3c-0.1,-0.2 -0.2,-0.4 -0.2,-0.6l0,-1.7l0.4,0Z" style="fill:#3d3d3d;fill-rule:nonzero;"/><path d="M29.6,62.9c0.2,-0.4 0.5,-0.6 0.9,-0.6c0.3,0 0.5,0.1 0.6,0.3c0.1,0.2 0.2,0.4 0.2,0.6l0,1.7l-0.4,0l0,-1.6c0,-0.4 -0.2,-0.7 -0.5,-0.7c-0.5,0 -0.8,0.4 -0.8,1l0,1.3l-0.4,0l0,-2.5l0.4,0l0,0.5Z" style="fill:#3d3d3d;fill-rule:nonzero;"/><path d="M32.1,62.7c0.2,-0.2 0.5,-0.4 0.9,-0.4c0.5,0 0.9,0.3 1,0.8l-0.4,0.1c-0.1,-0.4 -0.3,-0.6 -0.7,-0.6c-0.5,0 -0.8,0.4 -0.8,1c0,0.6 0.3,1 0.8,1c0.3,0 0.6,-0.2 0.7,-0.6l0.4,0.1c-0.1,0.6 -0.5,0.9 -1,0.9c-0.3,0 -0.6,-0.1 -0.8,-0.3c-0.2,-0.2 -0.3,-0.6 -0.3,-1c-0.1,-0.4 0,-0.7 0.2,-1Z" style="fill:#3d3d3d;fill-rule:nonzero;"/><path d="M34.9,62.9c0.2,-0.4 0.5,-0.6 0.9,-0.6c0.3,0 0.5,0.1 0.6,0.3c0.1,0.2 0.2,0.4 0.2,0.6l0,1.7l-0.4,0l0,-1.6c0,-0.4 -0.2,-0.7 -0.5,-0.7c-0.5,0 -0.8,0.4 -0.8,1l0,1.3l-0.4,0l0,-3.5l0.4,0l0,1.5Z" style="fill:#3d3d3d;fill-rule:nonzero;"/><path d="M37.4,62.7c0.2,-0.2 0.5,-0.4 0.9,-0.4c0.7,0 1.1,0.5 1.1,1.3l0,0.1l-1.9,0c0,0.6 0.3,1 0.8,1c0.3,0 0.5,-0.1 0.7,-0.5l0.3,0.1c-0.1,0.2 -0.3,0.4 -0.5,0.5c-0.2,0.1 -0.4,0.2 -0.6,0.2c-0.4,0 -0.7,-0.1 -0.9,-0.4c-0.2,-0.2 -0.3,-0.6 -0.3,-0.9c0.1,-0.4 0.2,-0.7 0.4,-1ZM38.3,62.7c-0.4,0 -0.7,0.3 -0.8,0.8l1.4,0c0,-0.6 -0.2,-0.8 -0.6,-0.8Z" style="fill:#3d3d3d;fill-rule:nonzero;"/><path d="M40.8,64.7c0.4,0 0.7,-0.2 0.7,-0.4c0,-0.2 -0.1,-0.3 -0.5,-0.4l-0.3,-0.1c-0.5,-0.1 -0.8,-0.4 -0.8,-0.7c0,-0.2 0.1,-0.4 0.3,-0.5c0.2,-0.1 0.4,-0.2 0.7,-0.2c0.5,0 0.9,0.3 1,0.7l-0.3,0.1c-0.1,-0.3 -0.3,-0.5 -0.6,-0.5c-0.3,0 -0.6,0.2 -0.6,0.4c0,0.2 0.1,0.3 0.4,0.4l0.3,0.1c0.6,0.1 0.8,0.4 0.8,0.7c0,0.2 -0.1,0.4 -0.3,0.5c-0.2,0.1 -0.4,0.2 -0.8,0.2c-0.6,0 -1,-0.3 -1.1,-0.8l0.4,-0.1c0,0.4 0.3,0.6 0.7,0.6Z" style="fill:#3d3d3d;fill-rule:nonzero;"/><path d="M43.2,62.7l0,-0.3l0.4,0l0,-0.7l0.4,0l0,0.7l0.8,0l0,0.3l-0.8,0l0,1.5c0,0.3 0.1,0.4 0.3,0.4c0.1,0 0.3,0 0.5,0l0,0.3c-0.2,0 -0.3,0 -0.5,0c-0.5,0 -0.7,-0.2 -0.7,-0.7l0,-1.5l-0.4,0Z" style="fill:#3d3d3d;fill-rule:nonzero;"/><path d="M45.4,62.7c0.2,-0.2 0.5,-0.4 0.9,-0.4c0.4,0 0.7,0.1 0.9,0.4c0.2,0.2 0.3,0.6 0.3,0.9c0,0.4 -0.1,0.7 -0.3,0.9c-0.2,0.2 -0.5,0.4 -0.9,0.4c-0.4,0 -0.7,-0.1 -0.9,-0.4c-0.2,-0.2 -0.3,-0.6 -0.3,-0.9c0,-0.3 0.1,-0.7 0.3,-0.9ZM46.3,62.7c-0.5,0 -0.8,0.4 -0.8,1c0,0.6 0.3,1 0.8,1c0.5,0 0.8,-0.4 0.8,-1c0,-0.7 -0.4,-1 -0.8,-1Z" style="fill:#3d3d3d;fill-rule:nonzero;"/><path d="M48.8,62.7l0,-0.3l0.4,0l0,-0.7l0.4,0l0,0.7l0.8,0l0,0.3l-0.8,0l0,1.5c0,0.3 0.1,0.4 0.3,0.4c0.1,0 0.3,0 0.5,0l0,0.3c-0.2,0 -0.3,0 -0.5,0c-0.5,0 -0.7,-0.2 -0.7,-0.7l0,-1.5l-0.4,0Z" style="fill:#3d3d3d;fill-rule:nonzero;"/><path d="M51.3,62.9c0.2,-0.4 0.5,-0.6 0.9,-0.6c0.3,0 0.5,0.1 0.6,0.3c0.1,0.2 0.2,0.4 0.2,0.6l0,1.7l-0.4,0l0,-1.6c0,-0.4 -0.2,-0.7 -0.5,-0.7c-0.5,0 -0.8,0.4 -0.8,1l0,1.3l-0.4,0l0,-3.5l0.4,0l0,1.5Z" style="fill:#3d3d3d;fill-rule:nonzero;"/><path d="M53.8,62.7c0.2,-0.2 0.5,-0.4 0.9,-0.4c0.7,0 1.1,0.5 1.1,1.3l0,0.1l-1.9,0c0,0.6 0.3,1 0.8,1c0.3,0 0.5,-0.1 0.7,-0.5l0.3,0.1c-0.1,0.2 -0.3,0.4 -0.5,0.5c-0.2,0.1 -0.4,0.2 -0.6,0.2c-0.4,0 -0.7,-0.1 -0.9,-0.4c-0.2,-0.2 -0.3,-0.6 -0.3,-0.9c0.1,-0.4 0.2,-0.7 0.4,-1ZM54.7,62.7c-0.4,0 -0.7,0.3 -0.8,0.8l1.4,0c0.1,-0.6 -0.2,-0.8 -0.6,-0.8Z" style="fill:#3d3d3d;fill-rule:nonzero;"/><rect x="1.2" y="67.4" width="0.4" height="3.5" style="fill:#3d3d3d;fill-rule:nonzero;"/><path d="M2.7,68.9c0.2,-0.4 0.5,-0.6 0.9,-0.6c0.3,0 0.5,0.1 0.6,0.3c0.1,0.2 0.2,0.4 0.2,0.6l0,1.7l-0.4,0l0,-1.6c0,-0.4 -0.2,-0.7 -0.5,-0.7c-0.5,0 -0.8,0.4 -0.8,1l0,1.3l-0.4,0l0,-2.5l0.4,0l0,0.5Z" style="fill:#3d3d3d;fill-rule:nonzero;"/><path d="M4.7,68.7l0,-0.3l0.4,0l0,-0.7l0.4,0l0,0.7l0.8,0l0,0.3l-0.8,0l0,1.5c0,0.3 0.1,0.4 0.3,0.4c0.1,0 0.3,0 0.5,0l0,0.3c-0.2,0 -0.3,0 -0.5,0c-0.5,0 -0.7,-0.2 -0.7,-0.7l0,-1.5l-0.4,0Z" style="fill:#3d3d3d;fill-rule:nonzero;"/><path d="M6.9,68.7c0.2,-0.2 0.5,-0.4 0.9,-0.4c0.7,0 1.1,0.5 1.1,1.3l0,0.1l-1.9,0c0,0.6 0.3,1 0.8,1c0.3,0 0.5,-0.1 0.7,-0.5l0.3,0.1c-0.1,0.2 -0.3,0.4 -0.5,0.5c-0.2,0.1 -0.4,0.2 -0.6,0.2c-0.4,0 -0.7,-0.1 -0.9,-0.4c-0.2,-0.2 -0.3,-0.6 -0.3,-0.9c0.1,-0.4 0.2,-0.7 0.4,-1ZM7.8,68.7c-0.4,0 -0.7,0.3 -0.8,0.8l1.4,0c0,-0.6 -0.2,-0.8 -0.6,-0.8Z" style="fill:#3d3d3d;fill-rule:nonzero;"/><path d="M9.8,69c0.2,-0.4 0.5,-0.6 0.9,-0.6l0.1,0l0,0.4l-0.1,0c-0.5,0 -0.8,0.3 -0.8,0.9l0,1.2l-0.4,0l0,-2.5l0.4,0l-0.1,0.6Z" style="fill:#3d3d3d;fill-rule:nonzero;"/><path d="M11.7,68.9c0.2,-0.4 0.5,-0.6 0.9,-0.6c0.3,0 0.5,0.1 0.6,0.3c0.1,0.2 0.2,0.4 0.2,0.6l0,1.7l-0.4,0l0,-1.6c0,-0.4 -0.2,-0.7 -0.5,-0.7c-0.5,0 -0.8,0.4 -0.8,1l0,1.3l-0.4,0l0,-2.5l0.4,0l0,0.5Z" style="fill:#3d3d3d;fill-rule:nonzero;"/><path d="M14.1,69.7c0.2,-0.2 0.6,-0.3 1.1,-0.3l0.3,0l0,-0.1c0,-0.4 -0.2,-0.6 -0.6,-0.6c-0.3,0 -0.5,0.2 -0.6,0.5l-0.4,-0.1c0.1,-0.4 0.5,-0.7 1,-0.7c0.6,0 1,0.4 1,1.1l0,1.5l-0.4,0l0,-0.4c-0.2,0.3 -0.5,0.5 -0.9,0.5c-0.2,0 -0.4,-0.1 -0.6,-0.2c-0.2,-0.1 -0.2,-0.3 -0.2,-0.5c0,-0.4 0.1,-0.6 0.3,-0.7ZM15.2,69.7c-0.4,0 -0.7,0.1 -0.8,0.2c-0.1,0.1 -0.2,0.2 -0.2,0.4c0,0.3 0.2,0.4 0.5,0.4c0.2,0 0.4,-0.1 0.6,-0.2c0.1,-0.1 0.2,-0.3 0.2,-0.5l0,-0.3l-0.3,0Z" style="fill:#3d3d3d;fill-rule:nonzero;"/><path d="M16.3,68.7l0,-0.3l0.4,0l0,-0.7l0.4,0l0,0.7l0.8,0l0,0.3l-0.8,0l0,1.5c0,0.3 0.1,0.4 0.3,0.4c0.1,0 0.3,0 0.5,0l0,0.3c-0.2,0 -0.3,0 -0.5,0c-0.5,0 -0.7,-0.2 -0.7,-0.7l0,-1.5l-0.4,0Z" style="fill:#3d3d3d;fill-rule:nonzero;"/><path d="M18.8,68l-0.4,0l0,-0.5l0.4,0l0,0.5ZM18.8,70.9l-0.4,0l0,-2.5l0.4,0l0,2.5Z" style="fill:#3d3d3d;fill-rule:nonzero;"/><path d="M19.6,68.7c0.2,-0.2 0.5,-0.4 0.9,-0.4c0.4,0 0.7,0.1 0.9,0.4c0.2,0.2 0.3,0.6 0.3,0.9c0,0.4 -0.1,0.7 -0.3,0.9c-0.2,0.2 -0.5,0.4 -0.9,0.4c-0.4,0 -0.7,-0.1 -0.9,-0.4c-0.2,-0.2 -0.3,-0.6 -0.3,-0.9c0,-0.3 0.1,-0.7 0.3,-0.9ZM20.5,68.7c-0.5,0 -0.8,0.4 -0.8,1c0,0.6 0.3,1 0.8,1c0.5,0 0.8,-0.4 0.8,-1c0,-0.7 -0.3,-1 -0.8,-1Z" style="fill:#3d3d3d;fill-rule:nonzero;"/><path d="M22.6,68.9c0.2,-0.4 0.5,-0.6 0.9,-0.6c0.3,0 0.5,0.1 0.6,0.3c0.1,0.2 0.2,0.4 0.2,0.6l0,1.7l-0.4,0l0,-1.6c0,-0.4 -0.2,-0.7 -0.5,-0.7c-0.5,0 -0.8,0.4 -0.8,1l0,1.3l-0.4,0l0,-2.5l0.4,0l0,0.5Z" style="fill:#3d3d3d;fill-rule:nonzero;"/><path d="M25.1,69.7c0.2,-0.2 0.6,-0.3 1.1,-0.3l0.3,0l0,-0.1c0,-0.4 -0.2,-0.6 -0.6,-0.6c-0.3,0 -0.5,0.2 -0.6,0.5l-0.4,-0.1c0.1,-0.4 0.5,-0.7 1,-0.7c0.6,0 1,0.4 1,1.1l0,1.5l-0.4,0l0,-0.4c-0.2,0.3 -0.5,0.5 -0.9,0.5c-0.2,0 -0.4,-0.1 -0.6,-0.2c-0.2,-0.1 -0.2,-0.3 -0.2,-0.5c0,-0.4 0.1,-0.6 0.3,-0.7ZM26.2,69.7c-0.4,0 -0.7,0.1 -0.8,0.2c-0.1,0.1 -0.2,0.2 -0.2,0.4c0,0.3 0.2,0.4 0.5,0.4c0.2,0 0.4,-0.1 0.6,-0.2c0.1,-0.1 0.2,-0.3 0.2,-0.5l0,-0.3l-0.3,0Z" style="fill:#3d3d3d;fill-rule:nonzero;"/><rect x="27.5" y="67.4" width="0.4" height="3.5" style="fill:#3d3d3d;fill-rule:nonzero;"/><path d="M30.9,70.6c0.2,0 0.4,-0.1 0.6,-0.2c0.2,-0.1 0.2,-0.3 0.2,-0.5c0,-0.3 -0.2,-0.5 -0.7,-0.7l-0.4,-0.1c-0.6,-0.2 -0.9,-0.5 -0.9,-1c0,-0.3 0.1,-0.5 0.3,-0.7c0.2,-0.2 0.5,-0.3 0.9,-0.3c0.6,0 1.1,0.3 1.2,1l-0.4,0.1c-0.1,-0.5 -0.4,-0.7 -0.8,-0.7c-0.5,0 -0.8,0.2 -0.8,0.6c0,0.3 0.1,0.5 0.6,0.6l0.4,0.1c0.8,0.2 1.1,0.6 1.1,1c0,0.3 -0.1,0.5 -0.4,0.7c-0.2,0.2 -0.5,0.3 -0.9,0.3c-0.8,0 -1.3,-0.4 -1.4,-1.1l0.4,-0.1c0.1,0.8 0.4,1 1,1Z" style="fill:#3d3d3d;fill-rule:nonzero;"/><path d="M33.1,68.9c0.2,-0.3 0.5,-0.6 0.9,-0.6c0.3,0 0.6,0.1 0.8,0.4c0.2,0.3 0.3,0.6 0.3,0.9c0,0.4 -0.1,0.7 -0.3,0.9c-0.2,0.3 -0.5,0.4 -0.8,0.4c-0.4,0 -0.7,-0.2 -0.9,-0.6l0,1.4l-0.4,0l0,-3.4l0.4,0l0,0.6ZM33.9,68.7c-0.2,0 -0.4,0.1 -0.5,0.3c-0.2,0.2 -0.2,0.4 -0.2,0.7c0,0.3 0.1,0.5 0.2,0.7c0.2,0.2 0.3,0.3 0.5,0.3c0.5,0 0.8,-0.4 0.8,-1c-0.1,-0.7 -0.4,-1 -0.8,-1Z" style="fill:#3d3d3d;fill-rule:nonzero;"/><path d="M35.7,69.7c0.2,-0.2 0.6,-0.3 1.1,-0.3l0.3,0l0,-0.1c0,-0.4 -0.2,-0.6 -0.6,-0.6c-0.3,0 -0.5,0.2 -0.6,0.5l-0.4,-0.1c0.1,-0.4 0.5,-0.7 1,-0.7c0.6,0 1,0.4 1,1.1l0,1.5l-0.4,0l0,-0.4c-0.2,0.3 -0.5,0.5 -0.9,0.5c-0.2,0 -0.4,-0.1 -0.6,-0.2c-0.2,-0.1 -0.2,-0.3 -0.2,-0.5c0,-0.4 0.1,-0.6 0.3,-0.7ZM36.8,69.7c-0.4,0 -0.7,0.1 -0.8,0.2c-0.1,0.1 -0.2,0.2 -0.2,0.4c0,0.3 0.2,0.4 0.5,0.4c0.2,0 0.4,-0.1 0.6,-0.2c0.1,-0.1 0.2,-0.3 0.2,-0.5l0,-0.3l-0.3,0Z" style="fill:#3d3d3d;fill-rule:nonzero;"/><path d="M38.3,68.7c0.2,-0.2 0.5,-0.4 0.9,-0.4c0.5,0 0.9,0.3 1,0.8l-0.4,0.1c-0.1,-0.4 -0.3,-0.6 -0.7,-0.6c-0.5,0 -0.8,0.4 -0.8,1c0,0.6 0.3,1 0.8,1c0.3,0 0.6,-0.2 0.7,-0.6l0.4,0.1c-0.1,0.6 -0.5,0.9 -1,0.9c-0.3,0 -0.6,-0.1 -0.8,-0.3c-0.2,-0.2 -0.3,-0.6 -0.3,-1c-0.1,-0.4 0,-0.7 0.2,-1Z" style="fill:#3d3d3d;fill-rule:nonzero;"/><path d="M40.9,68.7c0.2,-0.2 0.5,-0.4 0.9,-0.4c0.7,0 1.1,0.5 1.1,1.3l0,0.1l-1.9,0c0,0.6 0.3,1 0.8,1c0.3,0 0.5,-0.1 0.7,-0.5l0.3,0.1c-0.1,0.2 -0.3,0.4 -0.5,0.5c-0.2,0.1 -0.4,0.2 -0.6,0.2c-0.4,0 -0.7,-0.1 -0.9,-0.4c-0.2,-0.2 -0.3,-0.6 -0.3,-0.9c0,-0.4 0.2,-0.7 0.4,-1ZM41.7,68.7c-0.4,0 -0.7,0.3 -0.8,0.8l1.4,0c0.1,-0.6 -0.2,-0.8 -0.6,-0.8Z" style="fill:#3d3d3d;fill-rule:nonzero;"/><path d="M45.7,70.6c0.2,0 0.4,-0.1 0.6,-0.2c0.2,-0.1 0.2,-0.3 0.2,-0.5c0,-0.3 -0.2,-0.5 -0.7,-0.7l-0.4,-0.1c-0.6,-0.2 -0.9,-0.5 -0.9,-1c0,-0.3 0.1,-0.5 0.3,-0.7c0.2,-0.2 0.5,-0.3 0.9,-0.3c0.6,0 1.1,0.3 1.2,1l-0.4,0.1c-0.1,-0.5 -0.4,-0.7 -0.8,-0.7c-0.5,0 -0.8,0.2 -0.8,0.6c0,0.3 0.1,0.5 0.6,0.6l0.4,0.1c0.8,0.2 1.1,0.6 1.1,1c0,0.3 -0.1,0.5 -0.4,0.7c-0.2,0.2 -0.5,0.3 -0.9,0.3c-0.8,0 -1.3,-0.4 -1.4,-1.1l0.4,-0.1c0.1,0.8 0.5,1 1,1Z" style="fill:#3d3d3d;fill-rule:nonzero;"/><path d="M47.2,68.7l0,-0.3l0.4,0l0,-0.7l0.4,0l0,0.7l0.8,0l0,0.3l-0.8,0l0,1.5c0,0.3 0.1,0.4 0.3,0.4c0.1,0 0.3,0 0.5,0l0,0.3c-0.2,0 -0.3,0 -0.5,0c-0.5,0 -0.7,-0.2 -0.7,-0.7l0,-1.5l-0.4,0Z" style="fill:#3d3d3d;fill-rule:nonzero;"/><path d="M49.4,69.7c0.2,-0.2 0.6,-0.3 1.1,-0.3l0.3,0l0,-0.1c0,-0.4 -0.2,-0.6 -0.6,-0.6c-0.3,0 -0.5,0.2 -0.6,0.5l-0.4,-0.1c0.1,-0.4 0.5,-0.7 1,-0.7c0.6,0 1,0.4 1,1.1l0,1.5l-0.4,0l0,-0.4c-0.2,0.3 -0.5,0.5 -0.9,0.5c-0.2,0 -0.4,-0.1 -0.6,-0.2c-0.2,-0.1 -0.2,-0.3 -0.2,-0.5c0,-0.4 0.1,-0.6 0.3,-0.7ZM50.6,69.7c-0.4,0 -0.7,0.1 -0.8,0.2c-0.1,0.1 -0.2,0.2 -0.2,0.4c0,0.3 0.2,0.4 0.5,0.4c0.2,0 0.4,-0.1 0.6,-0.2c0.1,-0.1 0.2,-0.3 0.2,-0.5l0,-0.3l-0.3,0Z" style="fill:#3d3d3d;fill-rule:nonzero;"/><path d="M51.6,68.7l0,-0.3l0.4,0l0,-0.7l0.4,0l0,0.7l0.8,0l0,0.3l-0.8,0l0,1.5c0,0.3 0.1,0.4 0.3,0.4c0.1,0 0.3,0 0.5,0l0,0.3c-0.2,0 -0.3,0 -0.5,0c-0.5,0 -0.7,-0.2 -0.7,-0.7l0,-1.5l-0.4,0Z" style="fill:#3d3d3d;fill-rule:nonzero;"/><path d="M54.1,68l-0.4,0l0,-0.5l0.4,0l0,0.5ZM54.1,70.9l-0.4,0l0,-2.5l0.4,0l0,2.5Z" style="fill:#3d3d3d;fill-rule:nonzero;"/><path d="M55,68.7c0.2,-0.2 0.5,-0.4 0.9,-0.4c0.4,0 0.7,0.1 0.9,0.4c0.2,0.2 0.3,0.6 0.3,0.9c0,0.4 -0.1,0.7 -0.3,0.9c-0.2,0.2 -0.5,0.4 -0.9,0.4c-0.4,0 -0.7,-0.1 -0.9,-0.4c-0.2,-0.2 -0.3,-0.6 -0.3,-0.9c0,-0.3 0.1,-0.7 0.3,-0.9ZM55.9,68.7c-0.5,0 -0.8,0.4 -0.8,1c0,0.6 0.3,1 0.8,1c0.5,0 0.8,-0.4 0.8,-1c-0.1,-0.7 -0.4,-1 -0.8,-1Z" style="fill:#3d3d3d;fill-rule:nonzero;"/><path d="M58,68.9c0.2,-0.4 0.5,-0.6 0.9,-0.6c0.3,0 0.5,0.1 0.6,0.3c0.1,0.2 0.2,0.4 0.2,0.6l0,1.7l-0.4,0l0,-1.6c0,-0.4 -0.2,-0.7 -0.5,-0.7c-0.5,0 -0.8,0.4 -0.8,1l0,1.3l-0.4,0l0,-2.5l0.4,0l0,0.5Z" style="fill:#3d3d3d;fill-rule:nonzero;"/></g><path d="M81.2,10.8l-13.5,9.8l-13.3,5.1l-13.4,-11.7l-13.2,16.6l-13.5,-12.1l-13.3,19.9" style="fill:none;stroke-width:0.5px;stroke:#3d3d3d;"/><path d="M85.2,45.9l-13.5,-8.4l-13.3,0l-13.4,-10.1l-13.2,-6.8l-13.1,7l-13.7,-1" style="fill:none;stroke-width:0.25px;stroke:#3d3d3d;"/><circle cx="14.3" cy="18.5" r="0.9" style="fill:#3d3d3d;"/><circle cx="27.7" cy="30.6" r="0.9" style="fill:#3d3d3d;"/><circle cx="41" cy="14.1" r="0.9" style="fill:#3d3d3d;"/><circle cx="54.4" cy="25.7" r="0.9" style="fill:#3d3d3d;"/><circle cx="67.7" cy="20.6" r="0.9" style="fill:#3d3d3d;"/><circle cx="81.2" cy="10.8" r="0.9" style="fill:#3d3d3d;"/><circle cx="1" cy="38.4" r="0.9" style="fill:#3d3d3d;"/><path d="M89.2,31.9l-13.5,3l-13.3,-0.4l-13.4,6.1l-13.2,1.6l-13.1,-9l-13.7,9.2" style="fill:none;stroke-width:0.5px;stroke-linecap:round;stroke-dasharray:0,1;stroke:#3d3d3d;"/></g></svg>