<svg viewBox="0 0 137 50" xmlns="http://www.w3.org/2000/svg" fill-rule="evenodd" clip-rule="evenodd" stroke-linecap="round" stroke-linejoin="round" stroke-miterlimit="1.414">
  <path fill="#3d3d3d" fill-opacity=".1" d="M28.2.7h80.5v48.5H28.2z"/>
  <path d="M108.2 1.2v47.5H28.7V1.2h79.5m.5-.5H28.2v48.5h80.5V.7z" fill="#3d3d3d" fill-rule="nonzero"/>
  <path fill="none" stroke-width=".25" stroke="#3d3d3d" d="M50.6 14.2h35.8v21.6H50.6z"/>
  <path fill="#3d3d3d" fill-opacity=".1" d="M50.6 14.2h35.8v21.6H50.6z"/>
  <g fill="none" stroke-width=".5" stroke-linejoin="miter" stroke="#3d3d3d">
    <path d="M90.8 34.8V14.7" stroke-dasharray="0,0.98"/>
    <path d="M91.8 14.2h34.3" stroke-dasharray="0,0.99"/>
    <path d="M126.6 15.2v20.1" stroke-dasharray="0,0.98"/>
    <path d="M125.6 35.8H91.3" stroke-dasharray="0,0.99"/>
  </g>
  <path fill="#3d3d3d" fill-opacity=".1" d="M90.8 14.2h35.8v21.6H90.8z"/>
  <g fill="none" stroke-width=".5" stroke-linejoin="miter" stroke="#3d3d3d">
    <path d="M10.3 34.8V14.7" stroke-dasharray="0,0.98"/>
    <path d="M11.3 14.2h34.3" stroke-dasharray="0,0.99"/>
    <path d="M46.1 15.2v20.1" stroke-dasharray="0,0.98"/>
    <path d="M45.1 35.8H10.8" stroke-dasharray="0,0.99"/>
  </g>
  <path fill="#3d3d3d" fill-opacity=".1" d="M10.3 14.2h35.8v21.6H10.3z"/>
  <path d="M134.8 25H2.1" fill="none" stroke-width=".5" stroke-dasharray="0,1" stroke="#3d3d3d"/>
  <path d="M136.6 25l-2.5-1 .6 1-.6 1 2.5-1zM.3 25l2.5-1-.6 1 .6 1-2.5-1z" fill="#3d3d3d" fill-rule="nonzero"/>
  <g fill="#3d3d3d" fill-rule="nonzero">
    <path d="M33.2 31.9h1v-1h.3v1h1v.3h-1v1h-.3v-1h-1v-.3zM36.9 30.8c.3-.3.6-.5.9-.5.5 0 .8.2 1.1.7l-.3.2c-.2-.4-.4-.6-.7-.6-.3 0-.5.1-.6.4-.2.2-.3.6-.3 1.1.2-.3.6-.6 1-.6.3 0 .6.1.8.3.2.2.3.5.3.8 0 .3-.1.6-.3.8-.2.2-.5.3-.9.3s-.7-.1-.9-.4c-.3-.3-.4-.7-.4-1.3-.1-.4 0-.9.3-1.2zm.9 1.1c-.5 0-.9.3-.9.8 0 .2.1.4.3.6.2.2.4.2.6.2.5 0 .8-.3.8-.8s-.3-.8-.8-.8zM39.9 33.2h.5v.6h-.5zM42.6 33.5c.5 0 .9-.5.9-1.5-.2.4-.6.6-1 .6-.3 0-.6-.1-.8-.3-.2-.2-.3-.5-.3-.8 0-.3.1-.6.3-.8.2-.2.5-.3.9-.3s.7.1.9.4c.2.3.4.7.4 1.3 0 .6-.1 1-.4 1.3-.3.3-.6.5-1 .5-.5 0-.9-.3-1.1-.8l.3-.1c.3.4.5.5.9.5zm.6-2.6c-.2-.2-.3-.2-.6-.2-.5 0-.8.3-.8.8s.3.8.8.8c.2 0 .4-.1.6-.2.2-.1.3-.3.3-.5-.1-.3-.2-.5-.3-.7z"/>
  </g>
  <g fill="#3d3d3d" fill-rule="nonzero">
    <path d="M73.7 31.9h1v-1h.3v1h1v.3h-1v1h-.3v-1h-1v-.3zM77.3 30.8c.3-.3.6-.5.9-.5.5 0 .8.2 1.1.7l-.3.2c-.2-.4-.4-.6-.7-.6-.3 0-.5.1-.6.4-.2.2-.3.6-.3 1.1.2-.3.6-.6 1-.6.3 0 .6.1.8.3.2.2.3.5.3.8 0 .3-.1.6-.3.8-.2.2-.5.3-.9.3s-.7-.1-.9-.4c-.3-.3-.4-.7-.4-1.3-.1-.4 0-.9.3-1.2zm1 1.1c-.5 0-.9.3-.9.8 0 .2.1.4.3.6.2.2.4.2.6.2.5 0 .8-.3.8-.8-.1-.5-.4-.8-.8-.8zM80.4 33.2h.5v.6h-.5zM83 33.5c.5 0 .8-.3.8-.7 0-.2-.1-.3-.2-.5-.1-.1-.3-.2-.6-.2h-.3v-.3h.3c.5 0 .7-.2.7-.6 0-.4-.3-.6-.7-.6-.4 0-.7.2-.8.7l-.4-.1c.1-.6.5-1 1.2-1 .4 0 .6.1.8.3.2.2.3.4.3.7 0 .4-.2.7-.6.8.5.1.7.4.7.8 0 .3-.1.5-.3.7-.2.2-.5.3-.9.3-.6 0-1.1-.3-1.2-1l.4-.1c.1.6.4.8.8.8z"/>
  </g>
  <g fill="#3d3d3d" fill-rule="nonzero">
    <path d="M114.4 31.9h1v-1h.3v1h1v.3h-1v1h-.3v-1h-1v-.3zM118.8 33.5c.2 0 .4-.1.6-.2.2-.1.2-.3.2-.6 0-.5-.3-.8-.7-.8-.3 0-.6.1-.8.4l-.4-.1.1-1.8h2v.3h-1.7l-.1 1.2c.2-.2.5-.4.8-.4.3 0 .6.1.8.3.2.2.3.5.3.8 0 .3-.1.6-.4.8-.2.2-.5.3-.9.3-.6 0-1.1-.3-1.2-1l.4-.1c.3.7.6.9 1 .9zM120.9 33.2h.5v.6h-.5zM122.3 30.5h2.3v.3c-.4.5-.7 1-.9 1.5-.2.5-.3 1-.4 1.5h-.4c.1-1.1.5-2.1 1.3-3h-1.9v-.3z"/>
  </g>
  <path d="M60.8 25h15.4M68.5 32.7V17.3" fill="none" stroke-width=".5" stroke-linecap="butt" stroke-linejoin="miter" stroke="#3d3d3d"/>
  <path d="M28.2.7l22.4 13.5M86.4 14.2L108.7.7M86.4 35.8l22.3 13.5M50.6 35.8L28.2 49.3" fill="none" stroke-width=".5" stroke-dasharray="0,1" stroke="#3d3d3d"/>
</svg>
