<svg viewBox="0 0 102 87" xmlns="http://www.w3.org/2000/svg" fill-rule="evenodd" clip-rule="evenodd" stroke-linecap="round" stroke-linejoin="round" stroke-miterlimit="1.414">
  <path fill="#94a0ab" fill-opacity=".1" d="M10.6 19.4h80.5v48.5H10.6z"/>
  <path d="M9.8 83.3c.3-.3.6-.5 1-.5s.7.2 1 .5c.3.3.4.7.4 1.3 0 .5-.1 1-.4 1.3-.2.3-.6.5-1 .5s-.7-.2-1-.5c-.2-.3-.4-.7-.4-1.3.1-.6.2-1 .4-1.3zm1-.1c-.5 0-.9.5-.9 1.4 0 .9.4 1.4.9 1.4s.9-.5.9-1.4c.1-.9-.3-1.4-.9-1.4zM24.9 86c.2 0 .4-.1.6-.2.2-.1.2-.3.2-.6 0-.5-.3-.8-.7-.8-.3 0-.6.1-.8.4l-.4-.1.1-1.8h2v.3h-1.7l-.1 1.2c.2-.2.5-.4.8-.4.3 0 .6.1.8.3.2.2.3.5.3.8 0 .3-.1.6-.4.8-.2.2-.5.3-.9.3-.6 0-1.1-.3-1.2-1l.4-.1c.3.7.6.9 1 .9z" fill="#94a0ab" fill-rule="nonzero"/>
  <g fill="#94a0ab" fill-rule="nonzero">
    <path d="M38.3 83.4c-.1.1-.2.1-.4.2s-.3.1-.4.1v-.3c.3-.1.5-.2.8-.4h.3v3h.7v.3h-1.9V86h.7v-2.6h.2zM40.6 83.3c.3-.3.6-.5 1-.5s.7.2 1 .5c.3.3.4.7.4 1.3 0 .5-.1 1-.4 1.3-.2.3-.6.5-1 .5s-.7-.2-1-.5c-.2-.3-.4-.7-.4-1.3.1-.6.2-1 .4-1.3zm1-.1c-.5 0-.9.5-.9 1.4 0 .9.4 1.4.9 1.4s.9-.5.9-1.4c0-.9-.3-1.4-.9-1.4z"/>
  </g>
  <g fill="#94a0ab" fill-rule="nonzero">
    <path d="M55.2 83.4c-.1.1-.2.1-.4.2-.1.1-.3.1-.4.1v-.3c.3-.1.5-.2.8-.4h.3v3h.7v.3h-1.9V86h.7v-2.6h.2zM58.3 86c.2 0 .4-.1.6-.2.2-.1.2-.3.2-.6 0-.5-.3-.8-.7-.8-.3 0-.6.1-.8.4l-.4-.1.1-1.8h2v.3h-1.7l-.1 1.2c.2-.2.5-.4.8-.4.3 0 .6.1.8.3.2.2.3.5.3.8 0 .3-.1.6-.4.8-.3.2-.5.3-.9.3-.6 0-1.1-.3-1.2-1l.4-.1c.3.7.6.9 1 .9z"/>
  </g>
  <g fill="#94a0ab" fill-rule="nonzero">
    <path d="M72.6 84.3c.1-.2.1-.3.1-.5 0-.4-.3-.6-.6-.6-.4 0-.7.2-.8.8l-.4-.1c.2-.6.6-1 1.2-1 .3 0 .6.1.8.3.2.2.3.4.3.7 0 .2-.1.4-.2.6-.1.2-.3.5-.7.8l-.8.8h1.7v.3H71v-.3l1.1-1c.2-.5.4-.7.5-.8zM74.5 83.3c.3-.3.6-.5 1-.5s.7.2 1 .5c.3.3.4.7.4 1.3 0 .5-.1 1-.4 1.3-.2.3-.6.5-1 .5s-.7-.2-1-.5c-.2-.3-.4-.7-.4-1.3 0-.6.1-1 .4-1.3zm.9-.1c-.5 0-.9.5-.9 1.4 0 .9.4 1.4.9 1.4s.9-.5.9-1.4c.1-.9-.3-1.4-.9-1.4z"/>
  </g>
  <g fill="#94a0ab" fill-rule="nonzero">
    <path d="M90 84.3c.1-.2.1-.3.1-.5 0-.4-.3-.6-.6-.6-.4 0-.7.2-.8.8l-.4-.1c.2-.6.6-1 1.2-1 .3 0 .6.1.8.3.2.2.3.4.3.7 0 .2-.1.4-.2.6-.1.2-.3.5-.7.8l-.8.8h1.7v.3h-2.2v-.3l1.1-1c.2-.5.4-.7.5-.8zM92.6 86c.2 0 .4-.1.6-.2.2-.1.2-.3.2-.6 0-.5-.3-.8-.7-.8-.3 0-.6.1-.8.4l-.4-.1.1-1.8h2v.3h-1.7l-.1 1.2c.2-.2.5-.4.8-.4.3 0 .6.1.8.3.2.2.3.5.3.8 0 .3-.1.6-.4.8-.2.2-.5.3-.9.3-.6 0-1.1-.3-1.2-1l.4-.1c.3.7.6.9 1 .9z"/>
  </g>
  <g fill="none" stroke-width=".5" stroke-dasharray="0,1" stroke="#94a0ab">
    <path d="M10.8 8.7v70M26.8 8.7v70M42.8 8.7v70M58.8 8.7v70M74.8 8.7v70M90.8 8.7v70"/>
  </g>
  <g fill="none" stroke-width=".5" stroke-dasharray="0,1" stroke="#94a0ab">
    <path d="M.8 67.7h100M.8 51.7h100M.8 35.7h100M.8 19.7h100"/>
  </g>
  <path d="M.8 61C9.6 61 9 27.4 15.1 27.4c8.9 0 11.6-27 14.3-27 2.7 0 .8 36.1 14.3 36.1 13.2 0 11.4-18.1 14.3-18.1 2.9 0-1.1 40.2 14.3 40.2 11.1 0 3.2 13.9 14.3 13.9 7.1 0 7-13.6 14.3-13.6" fill="none" stroke-width=".25" stroke-linecap="butt" stroke-linejoin="miter" stroke="#94a0ab"/>
  <path d="M.8 49.4c10.2 0 6.7-8 14.3-8 10 0 11.4-26.7 14.3-26.7 2.9 0 3.4 14.8 14.3 14.8 10.4 0 2.1 28.6 14.3 28.6 10.2 0 11.1-15.2 14.3-15.2 4.2 0 1.9 20.7 14.3 20.7 9.3 0 5.6 7.2 14.3 7.2" fill="none" stroke-width=".5" stroke-dasharray="0,1" stroke="#94a0ab"/>
  <path d="M.8 45.4c2.9 0 0 16 14.3 16 15.6 0 11-31.8 14.3-31.8 3.3 0 .2 20.9 14.3 20.9 4.7 0 7-3.8 14.3-3.8 15.1 0 10.3-17.3 14.3-17.3s-2.7 28.4 14.3 28.4c8.4 0 6.2 19.3 14.3 19.3" fill="none" stroke-width=".5" stroke-linecap="butt" stroke-linejoin="miter" stroke="#94a0ab"/>
  <path d="M90.5 19.9v47.5H11V19.9h79.5m.5-.5H10.5V68H91V19.4z" fill="#94a0ab" fill-rule="nonzero"/>
</svg>
