<svg viewBox="0 0 88 76" xmlns="http://www.w3.org/2000/svg" fill-rule="evenodd" clip-rule="evenodd" stroke-linecap="round" stroke-miterlimit="1.414">
  <path fill="#94a0ab" fill-opacity=".1" d="M9.3 16.2h70v42.2h-70z"/>
  <path fill="#94a0ab" fill-opacity=".4" d="M4.1 20.2h80.5v48.5H4.1z"/>
  <path d="M84 20.7v47.5H4.5V20.7H84m.5-.5H4v48.5h80.5V20.2z" fill="#94a0ab" fill-rule="nonzero"/>
  <path d="M79.1 16.4v41.7H9.6V16.4h69.5m.2-.2h-70v42.2h70V16.2z" fill="#94a0ab" fill-rule="nonzero"/>
  <path d="M74.3 13.2v34.6m-1 .5H14.8m-.5-1V12.7m1-.5h58.5" fill="none" stroke-width=".5" stroke-dasharray="0,1" stroke="#94a0ab"/>
  <path fill="#94a0ab" fill-opacity=".1" d="M14.3 12.2h60v36.2h-60z"/>
  <path d="M69.3 9.2v28.6m-1 .5H19.8m-.5-1V8.7m1-.5h48.5" fill="none" stroke-width=".5" stroke-dasharray="0,1" stroke="#94a0ab"/>
  <path d="M29.9 1.4h.4V1h.1v.4h.4v.1h-.4v.4h-.1v-.4h-.4v-.1zm2-.1c0-.1.1-.1.1-.2 0-.2-.1-.3-.3-.3-.2 0-.3.1-.4.3h-.2c.1-.3.2-.4.5-.4.1 0 .2 0 .3.1.1.1.1.2.1.3 0 .1 0 .2-.1.2-.1.1-.1.2-.3.3l-.3.3h.7V2h-.9l.4-.4c.3-.1.3-.2.4-.3zm.9-.3s-.1 0-.1.1h-.2V1c.1 0 .2-.1.3-.2h.1v1.3h.3v.1h-.8V2h.3l.1-1zm.7-.2h1v.1c-.2.2-.3.4-.4.6-.1.2-.1.4-.1.6h-.2c.1-.5.2-.9.5-1.3h-.8zm1.4.1c.1-.1.1-.1.3-.1.1 0 .2 0 .3.1.1.1.1.2.1.3 0 .1 0 .2-.1.3-.1.1-.1.1-.3.1-.1 0-.2 0-.3-.1-.1-.1-.1-.2-.1-.3 0-.2 0-.3.1-.3zm.2 0c-.1 0-.2.1-.2.3 0 .2.1.3.2.3s.2-.1.2-.3c0-.2 0-.3-.2-.3zm.1 1.3L36 .8h.1l-.9 1.4zm.6-.7c.1-.1.1-.1.3-.1.1 0 .2 0 .3.1.1.1.1.2.1.3 0 .1 0 .2-.1.3-.1.1-.1.1-.3.1-.1 0-.2 0-.3-.1-.1-.1-.1-.2-.1-.3 0-.1 0-.2.1-.3zm.2 0c-.1 0-.2.1-.2.3 0 .2.1.3.2.3s.2-.1.2-.3c0-.2 0-.3-.2-.3zm2.5.7h-.2l-.2-.4h-.6l-.2.4h-.2l.5-1.4h.2l.7 1.4zm-.8-.6h.5L38 .9l-.3.7zm2.3-.1c0 .5-.2.7-.7.7h-.4V.8h.4c.5 0 .7.2.7.7zm-.1 0c0-.4-.2-.6-.5-.6h-.3V2h.3c.3 0 .5-.2.5-.5zm1.7 0c0 .5-.2.7-.7.7h-.4V.8h.4c.5 0 .7.2.7.7zm-.2 0c0-.4-.2-.6-.5-.6h-.3V2h.3c.4 0 .5-.2.5-.5zm.6-.7h.2v1.4H42zm.6 0h1v.1h-.4v1.3H43V.9h-.4V.8zm1.4 0h.2v1.4H44zm.8.1c.1-.1.3-.2.5-.2s.3.1.4.2c.1.1.2.3.2.5s-.1.4-.2.5c-.1.1-.3.2-.4.2-.2 0-.3-.1-.5-.2-.1-.1-.2-.3-.2-.5.1-.2.1-.3.2-.5zm.5 0c-.3 0-.4.2-.4.6 0 .4.2.6.4.6.3 0 .4-.2.4-.6 0-.4-.2-.6-.4-.6zm1.9 1V.7h.2v1.4h-.2L46.5.9v1.2h-.2V.7h.2l.7 1.2zm1.8.3h-.2l-.2-.4H48l-.2.4h-.2l.5-1.4h.2l.7 1.4zm-.9-.6h.5l-.2-.7-.3.7zm1.4.4h.7v.1h-.9V.7h.2V2zM51.4.9c.1-.1.3-.2.4-.2.3 0 .5.1.5.4h-.2c0-.2-.2-.3-.4-.3-.1 0-.2 0-.3.2-.1.1-.1.2-.1.4s0 .4.1.4c.1.1.2.1.3.1.2 0 .3-.1.4-.3h.2c-.1.3-.3.4-.5.4s-.3-.1-.4-.2c-.1-.1-.2-.3-.2-.5.1-.1.1-.2.2-.4zM53 2h.7v.1h-.9V.7h.2V2zM54.1.8h.2v1.4h-.2zm.8.1c.1-.1.3-.2.4-.2.3 0 .5.1.5.4h-.2c0-.2-.2-.3-.4-.3-.1 0-.2 0-.3.2-.1.1-.1.2-.1.4s0 .4.1.4c.1.1.2.1.3.1.2 0 .3-.1.4-.3h.2c-.1.3-.3.4-.5.4s-.3-.1-.4-.2c-.1-.1-.2-.3-.2-.5.1-.1.1-.2.2-.4zm1.6.7l.7-.8h.2l-.5.6.5.8h-.2l-.4-.7-.3.3v.4h-.2V.8h.2v.8zm1.7.5c.1 0 .2 0 .2-.1.1 0 .1-.1.1-.2s-.1-.2-.3-.3H58c-.3-.1-.4-.2-.4-.4 0-.1 0-.2.1-.3.1-.1.2-.1.4-.1.3 0 .4.1.5.4h-.1c0-.2-.2-.3-.3-.3-.2 0-.3.1-.3.2s.1.2.2.2h.2c.3.1.4.2.4.4 0 .1 0 .2-.2.3-.1.1-.2.1-.4.1-.3 0-.5-.2-.6-.4h.2c.2.4.3.5.5.5z" fill="#94a0ab" fill-rule="nonzero"/>
  <path d="M4.2 4.2h80.2" fill="none" stroke-width=".25" stroke-linecap="butt" stroke="#94a0ab"/>
  <path fill="#94a0ab" d="M4.1 3.4h.2V5h-.2zm80.2 0h.2V5h-.2z"/>
  <path d="M4.1 4.2v16m80.4-16v16" fill="none" stroke-width=".25" stroke-dasharray="0,1" stroke="#94a0ab"/>
  <path d="M87.1 73.7L66.2 32.1" fill="none" stroke-width=".5" stroke-dasharray="0,1" stroke="#94a0ab"/>
  <path d="M87.9 75.3l-.3-2.7-.6 1-1.2-.1 2.1 1.8z" fill="#94a0ab" fill-rule="nonzero"/>
  <circle cx="66.2" cy="32.1" r=".5" fill="#94a0ab"/>
  <g>
    <path d="M1.7 73.7l20.8-41.6" fill="none" stroke-width=".5" stroke-dasharray="0,1" stroke="#94a0ab"/>
    <path d="M.9 75.3l2-1.8-1.2.1-.6-1-.2 2.7z" fill="#94a0ab" fill-rule="nonzero"/>
    <circle cx="22.5" cy="32.1" r=".5" fill="#94a0ab"/>
  </g>
</svg>
