<svg viewBox="0 0 110 57" xmlns="http://www.w3.org/2000/svg" fill-rule="evenodd" clip-rule="evenodd" stroke-miterlimit="1.414">
  <path d="M33.8 56.4h-.2l-.2-.4h-.6l-.2.4h-.2l.5-1.4h.2l.7 1.4zm-.8-.6h.5l-.2-.7-.3.7zm40.8-.5c0 .2-.1.3-.3.3.2 0 .3.2.3.3 0 .2-.2.4-.5.4h-.5V55h.5c.4 0 .5.1.5.3zm-.2 0c0-.2-.1-.2-.3-.2H73v.5h.3c.3 0 .3-.1.3-.3zm.1.7c0-.2-.1-.3-.3-.3H73v.5h.3c.3 0 .4-.1.4-.2z" fill="#94a0ab" fill-rule="nonzero"/>
  <path d="M51.3 52.5h44.1" fill="none" stroke-width=".25" stroke="#94a0ab"/>
  <path fill="#94a0ab" d="M51.2 51.7h.2v1.6h-.2zm44 0h.2v1.6h-.2z"/>
  <path d="M15.1 52.5h36.2" fill="none" stroke-width=".25" stroke="#94a0ab"/>
  <path fill="#94a0ab" d="M15 51.7h.2v1.6H15zm36.2 0h.2v1.6h-.2z"/>
  <path fill="#94a0ab" fill-opacity=".1" d="M15 1h80.5v48.5H15z"/>
  <path fill="none" stroke-width=".5" stroke="#94a0ab" d="M15 1h80.5v48.5H15z"/>
  <path d="M55.3 18.7v13m-6.6-6.5h13.1" fill="none" stroke-width=".5" stroke-linejoin="round" stroke="#94a0ab"/>
  <circle cx="55.3" cy="25.2" r="14" fill="none" stroke-width=".5" stroke-linecap="round" stroke-linejoin="round" stroke-dasharray="0,1" stroke="#94a0ab"/>
  <circle cx="15" cy="25.2" r="5.8" fill="none" stroke-width=".25" stroke="#94a0ab"/>
  <circle cx="15" cy="25.2" r="14" fill="none" stroke-width=".25" stroke="#94a0ab"/>
  <path d="M30.1 25.2h10.6" fill="none" stroke-width=".5" stroke-linecap="round" stroke-linejoin="round" stroke-dasharray="0,1.02" stroke="#94a0ab"/>
  <path d="M9.2 25.2c0-3.2 2.6-5.8 5.8-5.8 3.2 0 5.8 2.6 5.8 5.8m0 0c0 3.2-2.6 5.8-5.8 5.8-3.2 0-5.8-2.6-5.8-5.8H1c0 7.7 6.3 14 14 14s14-6.3 14-14h-8.2z" fill="#94a0ab" fill-rule="nonzero"/>
  <path d="M107.3 32.1l-11.8 6.8-11.8-6.8V18.5l11.8-6.8 11.8 6.8v13.6z" fill="none" stroke-width=".25" stroke="#94a0ab"/>
  <path d="M108.3 32.7l-12.8 7.4-12.9-7.4V17.8l12.9-7.4 12.8 7.4v14.9z" fill="none" stroke-width=".25" stroke="#94a0ab"/>
  <path d="M106.2 31.4l-10.7 6.2-10.7-6.2V19.1l10.7-6.2 10.7 6.2v12.3z" fill="none" stroke-width=".25" stroke="#94a0ab"/>
  <path d="M81.6 25.3v-8.1l13.9-8 13.9 8v8.1H81.6z" fill="#94a0ab" fill-opacity=".4" fill-rule="nonzero"/>
  <path d="M82.8 37.9l12.7-12.7" fill="none" stroke-width=".5" stroke-linecap="round" stroke-linejoin="round" stroke-dasharray="0,1" stroke="#94a0ab"/>
  <path d="M81.6 39.1l2.5-1-1.2-.3-.3-1.1-1 2.4z" fill="#94a0ab" fill-rule="nonzero"/>
  <g fill="#94a0ab" fill-rule="nonzero">
    <path d="M90.1 24.3h.2v1.4h-.2zm1.4 1.2l.4-1.2h.2v1.4H92v-1.2l-.4 1.2h-.2l-.4-1.2v1.2h-.2v-1.4h.2l.5 1.2zm1.3-1.1c.1-.1.3-.2.5-.2.3 0 .4.2.5.4h-.2c-.1-.2-.2-.3-.4-.3-.3 0-.4.2-.4.6 0 .4.2.6.4.6.1 0 .2 0 .3-.1.1-.1.1-.2.1-.3h-.4V25h.6v.7h-.1v-.2c-.1.2-.2.3-.4.3s-.3-.1-.4-.2c-.1-.1-.2-.3-.2-.5 0-.3 0-.5.1-.7zm1.5 1.1h.2v.2h-.2zm.7-1.1c.1-.1.2-.2.4-.2s.3.1.4.2c.1.1.2.3.2.5s-.1.4-.2.5c-.1.1-.2.2-.4.2s-.3-.1-.4-.2c-.1-.1-.2-.3-.2-.5.1-.2.1-.3.2-.5zm.4 0c-.2 0-.4.2-.4.6 0 .4.2.6.4.6s.4-.2.4-.6c0-.4-.1-.6-.4-.6zm1.3.1s-.1 0-.1.1h-.2v-.1c.1 0 .2-.1.3-.2h.1v1.3h.3v.1h-.8v-.1h.3v-1.1h.1zm1-.1c.1-.1.2-.2.4-.2s.3.1.4.2c.1.1.2.3.2.5s-.1.4-.2.5c-.1.1-.2.2-.4.2s-.3-.1-.4-.2c-.1-.1-.2-.3-.2-.5s.1-.3.2-.5zm.4 0c-.2 0-.4.2-.4.6 0 .4.2.6.4.6s.4-.2.4-.6c0-.4-.2-.6-.4-.6zm.8-.1h1v.1c-.2.2-.3.4-.4.6-.1.2-.1.4-.1.6h-.2c.1-.5.2-.9.5-1.3h-.8zm1.1.9l.7-1h.2v.9h.2v.1h-.2v.3h-.2v-.3h-.7zm.2 0h.6v-.8l-.6.8zm1.4-.8c.1-.1.2-.2.4-.2s.3.1.4.3l-.1.1c-.1-.2-.2-.2-.3-.2-.1 0-.2.1-.3.2-.1.1-.1.3-.1.4.1-.1.2-.2.4-.2.1 0 .3 0 .3.1.1.1.1.2.1.3 0 .1 0 .2-.1.3-.1.1-.2.1-.4.1-.1 0-.3-.1-.4-.2-.1-.1-.2-.3-.2-.6.2-.1.2-.2.3-.4zm.4.5c-.1 0-.2 0-.3.1-.1.1-.1.1-.1.2s0 .2.1.3c.1.1.2.1.2.1.2 0 .3-.1.3-.4.2-.2 0-.3-.2-.3z"/>
  </g>
</svg>
