<svg viewBox="0 0 81 64" xmlns="http://www.w3.org/2000/svg" fill-rule="evenodd" clip-rule="evenodd" stroke-linejoin="round" stroke-miterlimit="1.414">
  <g fill="#94a0ab">
    <path fill-opacity=".1" d="M.1 0h80.5v48.5H.1z"/>
    <path d="M80.1.5V48H.6V.5h79.5m.5-.5H.1v48.5h80.5V0zM2.7 60.6c-.1 0-.2.1-.3.1-.1 0-.2.1-.3.1v-.3c.2-.1.4-.2.7-.3H3v2.4h.6v.3H2.1v-.3h.6v-2zm13 .7c.1-.1.1-.3.1-.4 0-.3-.2-.5-.5-.5s-.6.2-.7.6l-.3-.1c.1-.5.5-.8 1-.8.3 0 .5.1.6.2.2.1.2.3.2.5 0 .1 0 .3-.1.5s-.3.4-.5.6l-.7.6h1.3v.3h-1.7v-.3l.8-.8c.3-.1.5-.2.5-.4zm12.1 1.4c.4 0 .6-.2.6-.5 0-.2 0-.3-.1-.4-.1-.1-.3-.1-.5-.1h-.2v-.3h.2c.4 0 .6-.2.6-.5s-.2-.5-.6-.5c-.3 0-.6.2-.6.6l-.3-.1c.1-.5.4-.8.9-.8.3 0 .5.1.7.2.2.2.2.3.2.5 0 .3-.2.5-.5.6.4.1.6.4.6.6 0 .2-.1.4-.3.6-.2.2-.4.2-.7.1-.5.1-.9-.2-1-.7l.3-.1c.1.6.4.8.7.8zm11.5-.6l1.3-1.8h.4v1.8h.4v.3H41v.6h-.3v-.6h-1.4v-.3zm.3 0h1.1v-1.4l-1.1 1.4zm13.3.6c.2 0 .3-.1.4-.2.1-.1.2-.3.2-.5 0-.4-.2-.6-.6-.6-.3 0-.5.1-.6.3l-.3-.1.1-1.4h1.6v.3h-1.3v1c.2-.2.4-.3.7-.3.3 0 .5.1.6.3.2.2.2.4.2.6 0 .3-.1.5-.3.7-.2.2-.4.3-.7.3-.5 0-.8-.3-1-.8l.3-.1c.1.4.3.5.7.5zm11.8-2.1c.2-.2.5-.4.7-.4.4 0 .6.2.9.6l-.3.1c-.1-.3-.4-.4-.6-.4-.2 0-.4.1-.5.3-.1.2-.2.5-.2.8.1-.3.4-.4.8-.4.3 0 .5.1.7.3.2.2.2.4.2.6 0 .3-.1.5-.3.7-.2.2-.4.3-.7.3-.3 0-.5-.1-.7-.3-.2-.2-.3-.6-.3-1.1 0-.5.1-.9.3-1.1zm.8.8c-.4 0-.7.3-.7.6 0 .2.1.4.2.5.1.1.3.2.5.2.4 0 .6-.3.6-.7 0-.3-.3-.6-.6-.6zM77 60.3h1.8v.3c-.3.4-.6.8-.7 1.2l-.3 1.2h-.3c.1-.9.4-1.7 1-2.4H77v-.3z" fill-rule="nonzero"/>
    <path d="M10.8 22.9H17v-6.1h.6v6.1h6.2v.6h-6.2v6.2H17v-6.2h-6.2v-.6zM30 15.3c1.5-2.1 3.5-3.2 5.8-3.2 2.8 0 5.1 1.8 6 5l-.6.1c-.8-2.7-2.7-4.5-5.4-4.5-2.1 0-3.9 1-5.3 3s-2.1 4.8-2.1 8.2v.3c0 .4 0 .9.1 1.4.4-1.6 1.3-2.8 2.7-3.8 1.4-1 3-1.5 4.8-1.5 2 0 3.7.6 5 2 1.4 1.3 2.1 3 2.1 5s-.7 3.7-2.2 5c-1.5 1.3-3.2 2-5.1 2-2.4 0-4.3-.9-5.7-2.6-1.5-1.8-2.2-4.3-2.2-7.5v-.3c-.2-3.7.6-6.5 2.1-8.6zm10.5 7.3c-1.3-1.2-2.8-1.8-4.6-1.8-1.7 0-3.3.6-4.8 1.7s-2.3 2.5-2.3 4.2c0 1.5.6 3 1.7 4.6 1.1 1.6 2.8 2.3 5.1 2.3 1.7 0 3.3-.6 4.7-1.8 1.4-1.2 2.1-2.8 2.1-4.6 0-1.8-.6-3.4-1.9-4.6zm5.4 9h1.4v2.3h-1.4zm16.7-11.3c.5-1 .7-1.9.7-2.9 0-1.4-.5-2.5-1.6-3.4-1.1-.9-2.5-1.4-4.1-1.4-3.2 0-5.9 2.2-6.7 6l-.6-.1c.8-4 3.6-6.5 7.3-6.5 1.9 0 3.4.5 4.6 1.6 1.2 1 1.8 2.3 1.8 3.8 0 1.1-.3 2.1-.8 3.2s-1.6 2.4-3.1 3.9l-8.6 8.8h12.6v.6H50.7v-.6l9-9.3c1.4-1.5 2.4-2.7 2.9-3.7z" fill-rule="nonzero"/>
    <circle cx="2.8" cy="54.7" r="2.7" fill-opacity=".1"/>
    <circle cx="15.3" cy="54.7" r="2.7" fill-opacity=".25"/>
    <circle cx="27.8" cy="54.7" r="2.7" fill-opacity=".4"/>
    <circle cx="40.3" cy="54.7" r="2.7" fill-opacity=".55"/>
    <circle cx="52.9" cy="54.7" r="2.7" fill-opacity=".7"/>
    <circle cx="65.4" cy="54.7" r="2.7" fill-opacity=".85"/>
    <circle cx="77.9" cy="54.7" r="2.7"/>
  </g>
</svg>
