<?xml version="1.0" standalone="no"?><!DOCTYPE svg PUBLIC "-//W3C//DTD SVG 1.1//EN" "http://www.w3.org/Graphics/SVG/1.1/DTD/svg11.dtd"><svg width="100%" height="100%" viewBox="0 0 180 28" version="1.1" xmlns="http://www.w3.org/2000/svg" xmlns:xlink="http://www.w3.org/1999/xlink" xml:space="preserve" style="fill-rule:evenodd;clip-rule:evenodd;stroke-linejoin:round;stroke-miterlimit:1.41421;"><g><path d="M85.5,7.8c0,3.6 -0.4,14.8 -0.4,14.8c0,2.2 0.7,3.1 2.8,3.1l0,1l-8.1,0l0,-1c2.1,0 3.1,-1 3.1,-3.1l0.7,-18.3c-0.6,-1.4 -1.2,-1.9 -2.8,-2.1l0,-0.7l6.2,0l6.5,17.1l6.6,-17.1l5.5,0l0,0.8c-1.6,0 -2.4,0.7 -2.4,2.4l0.7,17.7c0,2.7 0.5,3.4 2.7,3.4l0,1l-9.3,0l0,-1c1.8,0 2.7,-0.6 2.5,-3.4c0,0 -0.4,-12.4 -0.5,-14.6l-4.5,12.3c-0.6,1.6 -1.2,3.4 -1.7,5.3l-1.4,0.1c-0.4,-1.3 -1.3,-3.7 -1.3,-3.7c0,0 -3.5,-10.5 -4.9,-14Z" style="fill:#ababab;"/><path d="M77.9,26.9c-0.5,-0.1 -1,-0.1 -1.4,-0.1c-1,0 -2.7,0.5 -4.7,0.5c-7.8,0 -13.6,-4.7 -13.6,-13.4c0,-7.4 5.4,-13 13.8,-13c1.9,0 4.1,0.4 5.9,1.1c0.4,-0.4 0.5,-0.6 0.8,-1l0.7,0c-0.1,1.3 -0.6,5.7 -0.6,5.7l-0.7,0c-0.5,-2.5 -1.8,-4.2 -6,-4.2c-5.1,0 -9.7,4 -9.7,11.3c0,8.3 4.7,11.9 9.9,11.9c3.4,0 5.4,-1.9 6.8,-4.3l0.8,0.4l-2,5.1Z" style="fill:#ababab;"/><path d="M55.1,6.2l-0.8,0c-0.1,-2.3 -0.8,-3 -2.7,-3l-3.5,0l0,18.9c0,3.1 0.6,3.7 2.7,3.7l0,1l-9,0l0,-1c2.1,0 2.7,-0.6 2.7,-3.9l0,-18.8l-3.5,0c-2.3,0 -2.7,0.6 -3.3,3l-0.8,0l0.6,-5.4l0.5,0.1c0.2,0.6 0.7,0.6 2.2,0.6l11.7,0c2.2,0 2.7,0 3.1,-0.7l0.7,0l-0.6,5.5Z" style="fill:#ababab;"/><path d="M29.6,27.4c-1.7,0 -3,-0.2 -4,-0.6c-1,-0.2 -1.7,-0.6 -2.1,-0.8c-0.5,0.4 -0.8,1 -0.8,1l-0.7,-0.2l0.6,-5.7l0.8,0.1c0.5,2.7 2.3,4.6 6,4.6c2.9,0 4.8,-2.4 4.8,-5.1c0,-2.2 -0.8,-3.3 -3.7,-5.4c-1,-0.6 -1.8,-1.1 -2.5,-1.7c-2.7,-1.7 -4.3,-3.6 -4.3,-6.8c0,-3.6 3,-6 7,-6c2.3,0 3.7,0.7 4.2,1l0.8,-1l0.6,0.2l-0.6,5.2l-0.8,-0.2c0,-2.4 -1.4,-3.5 -3.9,-3.5c-2.3,0 -4,1.2 -4,3.5c0,2.1 1.6,3.4 3.4,4.6c1,0.6 1.7,1.1 2.4,1.6c4.2,3 5.2,4.9 5.2,7.8c0,4.3 -3.3,7.4 -8.4,7.4Z" style="fill:#ababab;"/><path d="M15.8,6.2l-1,0c0,-2.2 -1,-3 -2.9,-3l-5.4,0l0,9.5l3.5,0c1.8,0 2.2,-1 2.4,-2.5l0.8,0l0,6.8l-0.8,0c-0.2,-1.8 -0.6,-2.5 -2.5,-2.5l-3.4,0l0,8.1c0,3 0.7,3.4 2.7,3.4l0,1l-9.2,0l0,-1c2.3,0 2.7,-0.6 2.7,-3.4l0,-17.9c0,-1.7 -0.8,-2.4 -2.7,-2.4l0,-0.8l12.5,0c2.2,0 2.7,-0.1 3,-0.8l0.8,0l-0.5,5.5Z" style="fill:#ababab;"/><path d="M146,7.6l0,14.5c0,3.1 0.7,3.7 2.7,3.7l0,1l-14.2,0l0,-1c1.1,0 2.1,-0.4 2.1,-1.1c0,-0.5 -0.1,-1.3 -0.4,-2.2l-1.1,-3.5l-8,0c-0.1,0.5 -1.6,4.5 -1.6,5.5c0,1 1.1,1.2 1.8,1.2l0,1l-6.6,0l0,-1c1.2,0 2.2,-0.1 3,-2.7l6.2,-19.7c-0.4,-0.8 -0.8,-1.1 -1.7,-1.2l0,-0.6l5.4,0l6.5,20.6c0.6,2.2 1.2,3.3 2.2,3.7c1.4,-0.5 1.8,-1 1.8,-3.7l0,-17.4c-1.1,-1.4 -1.2,-2.4 -3.3,-2.4l0,-0.8l6.2,0l10.1,17.3l0,-13.2c0,-2.7 -0.6,-3.3 -2.7,-3.3l0,-0.8l13.5,0l0,0.8c-0.8,0 -1.6,0.4 -1.6,1.2c0,0.6 0.2,1.2 0.5,1.9l3.9,8.3l3.7,-8.1c0.6,-1.1 0.7,-1.7 0.7,-2.3c0,-0.7 -0.5,-1.1 -1.6,-1.1l0,-0.7l6.4,0l0,0.8c-1.6,0 -2.5,1.4 -3.3,3.1l-4.9,10.1l0,6.6c0,2.9 0.7,3.6 2.7,3.6l0,1l-9.2,0l0,-1c1.9,0 2.7,-0.7 2.7,-3.6l0,-5.7l-5.3,-11.2c-1,-2.2 -1.3,-2.7 -1.9,-3c-1.2,0.5 -1.6,1.3 -1.6,3.3l0,18.6c0,0 0.1,1.4 0.2,3.1l-1.6,0.1l-11.7,-19.7ZM130.9,6.4l-3.4,11l7,0l-3.6,-11Z" style="fill:#ababab;"/><path d="M115.9,17.4c0,0 -1.1,0 -1.8,0l0,5.2c0,2.7 0.7,3.3 2.8,3.3l0,1l-9.3,0l0,-1c1.9,0 2.7,-0.7 2.7,-3.4l0,-17c0,-2.7 -0.7,-3.1 -2.7,-3.1l0,-0.9l7,0c6.8,0 10.7,2.1 10.7,7.6c0,5.7 -4.8,8.3 -9.4,8.3ZM114.7,3.1l-0.6,0l0,12.4l1.1,0c4,0 6,-1.8 6,-6.4c0,-4.5 -1.8,-6 -6.5,-6Z" style="fill:#ababab;"/><path d="M73.8,22c-4.6,0 -7.7,-3.3 -7.7,-8c0,-4.5 3.3,-8 7.7,-8c4.3,0 7.6,3.4 7.6,8c0,4.5 -3.3,8 -7.6,8ZM73.8,7.5c-3.1,0 -4.2,3 -4.2,6.5c0,3.3 1,6.5 4.2,6.5c3.1,0 4.1,-3.3 4.1,-6.6c0,-3.3 -1.2,-6.4 -4.1,-6.4Z" style="fill:#ababab;"/><path d="M20.8,20.5l0,-0.8c1.2,0 1.4,-0.4 1.4,-0.7c0,-0.5 -0.1,-0.8 -0.2,-1.2c0,0 -0.2,-1 -0.5,-1.7l-4.7,0l-0.5,1.6c-0.1,0.3 -0.3,0.6 -0.3,1.1c0,0.5 0.5,0.8 1.2,0.8l0,0.8l-4.7,0l0,-0.8c1.2,0 1.7,-0.4 2.2,-1.7l3.6,-10.9c-0.1,-0.5 -0.5,-0.8 -1.2,-0.8l0,-0.8l3.9,0c3.1,9.2 4,11.6 4,11.6c0.6,2.1 1.2,2.7 2.2,2.7l0,0.8l-6.4,0ZM19.1,8.8l-1.8,5.9l3.7,0l-1.9,-5.9Z" style="fill:#ababab;"/></g></svg>