<?xml version="1.0" standalone="no"?><!DOCTYPE svg PUBLIC "-//W3C//DTD SVG 1.1//EN" "http://www.w3.org/Graphics/SVG/1.1/DTD/svg11.dtd"><svg width="100%" height="100%" viewBox="0 0 214 44" version="1.1" xmlns="http://www.w3.org/2000/svg" xmlns:xlink="http://www.w3.org/1999/xlink" xml:space="preserve" style="fill-rule:evenodd;clip-rule:evenodd;stroke-linejoin:round;stroke-miterlimit:1.41421;"><g><path d="M207.6,8c0,0.2 0.1,0.3 0.1,0.4c0.1,0.2 0.3,0.2 0.6,0.2c0.2,0 0.3,0 0.4,-0.1c0.2,-0.1 0.3,-0.2 0.3,-0.4c0,-0.1 -0.1,-0.2 -0.2,-0.3c-0.1,-0.1 -0.3,-0.1 -0.5,-0.2l-0.4,-0.1c-0.4,-0.1 -0.6,-0.2 -0.8,-0.3c-0.2,-0.2 -0.4,-0.4 -0.4,-0.8c0,-0.3 0.1,-0.6 0.4,-0.8c0.2,-0.2 0.6,-0.3 1.1,-0.3c0.4,0 0.7,0.1 1,0.3c0.3,0.2 0.4,0.5 0.4,0.9l-0.6,0c0,-0.2 -0.1,-0.4 -0.3,-0.5c-0.1,-0.1 -0.3,-0.1 -0.5,-0.1c-0.2,0 -0.4,0 -0.5,0.1c-0.1,0.1 -0.2,0.2 -0.2,0.3c0,0.1 0.1,0.2 0.2,0.3c0.1,0 0.2,0.1 0.5,0.2l0.6,0.2c0.3,0.1 0.5,0.2 0.6,0.3c0.2,0.2 0.3,0.4 0.3,0.8c0,0.3 -0.1,0.6 -0.4,0.8c-0.3,0.2 -0.6,0.3 -1.1,0.3c-0.5,0 -0.9,-0.1 -1.1,-0.3c-0.3,-0.2 -0.4,-0.5 -0.4,-0.9l0.9,0Z" style="fill:#ababab;"/><path d="M212.9,5.4l1.1,0l0,3.7l-0.7,0l0,-2.5l0,-0.6l-0.7,3.1l-0.7,0l-0.7,-3.1l0,3.1l-0.7,0l0,-3.7l1.1,0l0.7,2.9l0.6,-2.9Z" style="fill:#ababab;"/><path d="M33.6,6.1l-24.2,0c-4.2,0 -7.5,3.4 -7.5,7.6l0,18.4c0,4.2 3.4,7.6 7.5,7.6l24.3,0c4.2,0 7.5,-3.4 7.5,-7.6l0,-18.4c0,-4.2 -3.4,-7.6 -7.6,-7.6ZM9.7,38.7l-1.9,0l0,-31.6l1.9,0l0,31.6ZM12.9,38.8l-1.9,0l0,-31.8l1.9,0l0,31.8ZM18.1,38.8l-1.9,0l0,-31.7l1.9,0l0,31.7ZM30.4,38.8l-1.9,0l0,-31.8l1.9,0l0,31.8ZM35.6,38.9l-1.9,0l0,-31.7l1.9,0l0,31.7Z" style="fill:#ababab;"/><path d="M33.6,40.6l-24.2,0c-4.7,0 -8.5,-3.8 -8.5,-8.6l0,-18.3c0,-4.7 3.8,-8.6 8.5,-8.6l24.3,0c4.7,0 8.5,3.8 8.5,8.6l0,18.4c-0.1,4.7 -3.9,8.5 -8.6,8.5ZM9.4,7c-3.6,0 -6.6,3 -6.6,6.7l0,18.4c0,3.7 3,6.7 6.6,6.7l24.3,0c3.6,0 6.6,-3 6.6,-6.7l0,-18.4c0,-3.7 -3,-6.7 -6.6,-6.7l-24.3,0Z" style="fill:#ababab;fill-rule:nonzero;"/><g><path d="M18.7,31.1c-1.1,1.2 -3.1,0.9 -4.2,-0.2c-1.1,-1.2 -1.4,-3.1 -0.2,-4.3l5.1,-5.3l-16,0c-1.7,0 -2.9,-1.5 -2.9,-3.3c0,-1.7 1.2,-3.2 2.9,-3.2l15.9,0l-5.1,-5.3c-1.1,-1.2 -0.9,-3.2 0.2,-4.4c1.1,-1.2 3.1,-1.4 4.2,-0.2l8.8,9.3c1.2,1.3 2.4,2.1 2.4,3.9c0,1.9 -1.1,2.7 -2.4,4l-8.7,9Z" style="fill:#fff;"/><path d="M16.8,32.4c-1,0 -2,-0.4 -2.7,-1.2c-1.4,-1.4 -1.5,-3.6 -0.2,-4.9l4.3,-4.5l-14.8,0c-1.9,0 -3.4,-1.7 -3.4,-3.8c0,-2 1.5,-3.7 3.4,-3.7l14.8,0l-4.3,-4.5c-1.2,-1.3 -1.1,-3.6 0.2,-5.1c0.7,-0.7 1.7,-1.2 2.7,-1.2c0.9,0 1.6,0.3 2.2,0.9l8.8,9.3c0.2,0.2 0.4,0.4 0.5,0.5c1.1,1.1 2,2 2,3.7c0,1.8 -1,2.8 -2,3.9c-0.2,0.2 -0.3,0.3 -0.5,0.5l-8.8,9.1c-0.5,0.6 -1.3,1 -2.2,1ZM3.4,15.2c-1.4,0 -2.4,1.4 -2.4,2.7c0,1.6 1.1,2.8 2.5,2.8l17.1,0l-5.9,6.2c-1,1.1 -0.7,2.7 0.2,3.6c0.5,0.5 1.3,0.9 2,0.9c0.4,0 1,-0.1 1.5,-0.6l8.8,-9.1c0.2,-0.2 0.3,-0.4 0.5,-0.5c1,-1 1.7,-1.7 1.7,-3.2c0,-1.3 -0.7,-2 -1.7,-3c-0.2,-0.2 -0.4,-0.4 -0.5,-0.6l-8.8,-9.3c-0.5,-0.5 -1.1,-0.6 -1.5,-0.6c-0.7,0 -1.5,0.3 -2,0.9c-0.9,1 -1.2,2.7 -0.2,3.7l5.9,6.2l-17.2,0l0,-0.1Z" style="fill:#ababab;fill-rule:nonzero;"/></g><g><path d="M25.4,42.2c0.8,0.8 2.2,0.7 3,-0.2c0.8,-0.8 1,-2.1 0.2,-2.9l-3.6,-3.7l11.4,0c1.2,0 2.1,-1.1 2.1,-2.3c0,-1.1 -0.9,-2.2 -2.1,-2.2l-11.5,0l3.6,-3.7c0.8,-0.8 0.6,-2.2 -0.2,-3c-0.8,-0.8 -2.2,-1 -3,-0.2l-6.3,6.4c-0.9,0.9 -1.7,1.5 -1.7,2.7c0,1.3 0.8,1.9 1.7,2.8l6.4,6.3Z" style="fill:#fff;"/><path d="M26.7,43.2c-0.6,0 -1.2,-0.2 -1.7,-0.7l-6.7,-6.6c-0.8,-0.7 -1.5,-1.4 -1.5,-2.8c0,-1.2 0.7,-1.9 1.5,-2.7l0.4,-0.4l6.3,-6.4c0.4,-0.4 1,-0.7 1.7,-0.7c0.7,0 1.5,0.3 2,0.8c1,1 1.1,2.7 0.2,3.7l-2.8,2.8l10.2,0c1.4,0 2.6,1.2 2.6,2.7c0,1.5 -1.2,2.8 -2.6,2.8l-10.2,0l2.8,2.8c1,1 0.9,2.6 -0.2,3.6c-0.5,0.8 -1.2,1.1 -2,1.1l0,0ZM26.7,24.1c-0.3,0 -0.7,0.1 -1,0.4l-6.7,6.7c-0.7,0.7 -1.2,1.1 -1.2,2c0,0.9 0.5,1.4 1.2,2.1l6.7,6.7c0.3,0.3 0.7,0.4 1,0.4c0.5,0 1,-0.2 1.3,-0.6c0.6,-0.6 0.8,-1.6 0.2,-2.3l-4.4,-4.5l12.5,0c0.9,0 1.6,-0.8 1.6,-1.8c0,-0.8 -0.7,-1.7 -1.6,-1.7l-12.5,0l4.4,-4.5c0.6,-0.7 0.4,-1.7 -0.2,-2.3c-0.3,-0.4 -0.8,-0.6 -1.3,-0.6Z" style="fill:#ababab;fill-rule:nonzero;"/></g><path d="M63.8,8.3c-0.7,0 -0.8,0 -1.1,0.4c-0.3,0.4 -0.2,0.8 -0.1,1.1l1.8,4.1c0.2,0.5 1,2.1 -0.2,3.7c-0.8,1.1 -1.7,1.4 -2.8,1.4l-9.2,0l0.7,-2.6c0.5,0 2.9,0 2.9,0c0.5,0 0.8,-0.2 1.1,-0.5c0.3,-0.3 0.4,-0.7 0.2,-1.2l-1.9,-4.3c-0.5,-1.1 -0.4,-2.5 0.5,-3.6c0.9,-1.1 1.8,-1.3 3,-1.3l8.7,0l-0.7,2.6c-0.8,0.2 -2.9,0.2 -2.9,0.2Z" style="fill:#ababab;"/><path d="M69.4,19.1c-2.1,0 -3.6,-0.9 -2.8,-4.2l3.1,-12.1l6.5,0l-0.7,2.9l4.1,0l-0.7,2.6l-4.1,0l-1.8,7c-0.2,0.9 -0.1,1.1 1,1.1l2.3,0c1.3,0 -0.2,0 0.8,0l-0.7,2.6l-7,0l0,0.1Z" style="fill:#ababab;"/><path d="M89,8.3c-0.8,0 -1.1,0.3 -1.3,1.1l-1.7,6.6c-0.5,1.9 -0.4,1.7 -0.8,3.1l-7,0c0.4,-1.3 0.3,-1.2 0.8,-3.1l1.4,-5.5c0.8,-3 2.5,-4.9 5.6,-4.9l7.1,0c-0.2,0.7 -0.5,1.9 -0.7,2.6l-3.4,0l0,0.1Z" style="fill:#ababab;"/><path d="M98.4,14.1l-0.2,1c-0.3,1 0.1,1.4 1.1,1.4l7,0l-0.7,2.6l-11.2,0c-2.9,0 -3.4,-1.3 -2.7,-4.1l1.4,-5.3c0.7,-2.8 1.9,-4.1 4.8,-4.1l9.8,0c2.9,0 3.4,1.3 2.7,4.1l-1.1,4.4l-10.9,0ZM104.1,9.3c0.2,-0.8 0.1,-1.1 -0.7,-1.1l-2.7,0c-0.7,0 -1,0.3 -1.2,1.1l-0.5,2.1l4.5,0l0.6,-2.1Z" style="fill:#ababab;"/><path d="M113.2,19.1c-2.9,0 -3.4,-1.3 -2.7,-4.1l0.2,-0.9c0.7,-2.8 1.9,-4.1 4.8,-4.1l7,0c0.1,-0.4 0.1,-0.3 0.2,-0.9c0.2,-0.6 0,-0.9 -0.9,-0.9l-6.7,0l0.7,-2.6l10,0c3.1,0 4,1.3 3,5l-1.5,5.9c-0.4,1.4 -0.4,1.5 -0.7,2.5l-13.4,0l0,0.1ZM121.8,12.7l-2.8,0c-1,0 -1.4,0.2 -1.7,1.1l-0.4,1.5c-0.3,1 0.1,1.1 1.1,1.1l1.5,0c1.2,0 1.3,0.1 1.8,-1.6l0.5,-2.1Z" style="fill:#ababab;"/><path d="M147.7,19.1c0.3,-1.2 0.3,-1.2 0.8,-3.1l1.7,-6.7c0.2,-0.7 -0.1,-1 -0.5,-1l-2.1,0c-0.5,0 -0.8,0.3 -1,1l-1.7,6.7c-0.5,1.9 -0.5,1.9 -0.8,3.1l-6.1,0c0.3,-1.2 0.3,-1.2 0.8,-3.1l1.7,-6.7c0.2,-0.7 -0.1,-1 -0.5,-1l-2.1,0c-0.5,0 -0.8,0.3 -1,1l-1.7,6.7c-0.5,1.9 -0.5,1.8 -0.8,3.1l-5.9,0c0.3,-1.2 0.3,-1.2 0.8,-3.1l1.9,-7.3c0.5,-1.9 0.5,-2.1 0.8,-3.1l21.3,0c2.1,0 3.8,0.6 2.6,5.3l-1.3,5.1c-0.5,1.9 -0.4,1.7 -0.8,3.1l-6.1,0Z" style="fill:#ababab;"/><path d="M155.5,19.1l3.4,-13.4l6.5,0l-3.4,13.4l-6.5,0ZM159.4,4.3l0.9,-3.5l6.4,0l-0.9,3.5l-6.4,0Z" style="fill:#ababab;"/><path d="M175,19.1c0.4,-1.4 0.3,-1.2 0.8,-3.1l1.7,-6.6c0.2,-0.8 0,-1.1 -0.8,-1.1l-2.4,0c-0.8,0 -1.1,0.3 -1.3,1.1l-1.7,6.6c-0.5,1.9 -0.5,2 -0.8,3.1l-6.5,0c0.4,-1.4 0.3,-1.2 0.8,-3.1l1.9,-7.3c0.5,-1.9 0.4,-1.5 0.8,-3.1l13.1,0c3,0 3.8,1.9 3,4.9l-1.4,5.5c-0.5,1.9 -0.4,1.7 -0.8,3.1l-6.4,0Z" style="fill:#ababab;"/><path d="M195.1,24.1l-6.7,0l0.7,-2.6c1.2,0 2.9,0 2.9,0c1.4,0 1.7,-0.4 2.2,-2l0.1,-0.5l-6.8,0c-3,0 -3.6,-1.7 -3,-4.2l1.3,-5.1c0.6,-2.5 2.2,-4.2 5.1,-4.2l13.3,0c-0.2,0.9 -0.3,1.3 -0.9,3.6l-2.5,9.8c-1.1,4 -2.7,5.2 -5.7,5.2ZM196.7,9.3c0.2,-0.8 0.1,-1.1 -0.7,-1.1l-2.5,0c-0.7,0 -1,0.3 -1.2,1.1l-1.5,6c-0.2,0.8 -0.1,1.1 0.7,1.1l2.5,0c0.7,0 1,-0.3 1.2,-1.1l1.5,-6Z" style="fill:#ababab;"/><path d="M71.5,41.2c0.3,-1.2 0.3,-1.2 0.8,-3.1l1.7,-6.7c0.2,-0.7 -0.1,-1 -0.5,-1l-2.1,0c-0.5,0 -0.8,0.3 -1,1l-1.7,6.7c-0.5,1.9 -0.5,1.9 -0.8,3.1l-5.9,0c0.3,-1.2 0.3,-1.2 0.8,-3.1l1.7,-6.7c0.2,-0.7 -0.1,-1 -0.5,-1l-2.1,0c-0.5,0 -0.8,0.3 -1,1l-1.7,6.7c-0.5,1.9 -0.5,1.8 -0.8,3.1l-5.9,0c0.3,-1.2 0.3,-1.2 0.8,-3.1l1.9,-7.3c0.5,-1.9 0.5,-2.1 0.8,-3.1l21.3,0c2.1,0 3.8,0.6 2.6,5.3l-1.3,5.1c-0.5,1.9 -0.4,1.7 -0.8,3.1l-6.3,0Z" style="fill:#ababab;"/><path d="M86.8,36.2l-0.2,1c-0.3,1 0.1,1.4 1.1,1.4l7,0l-0.7,2.6l-11.2,0c-2.9,0 -3.4,-1.3 -2.7,-4.1l1.4,-5.3c0.7,-2.8 1.9,-4.1 4.8,-4.1l9.7,0c2.9,0 3.4,1.3 2.7,4.1l-1.1,4.4l-10.8,0ZM92.5,31.5c0.2,-0.8 0.1,-1.1 -0.7,-1.1l-2.7,0c-0.7,0 -1,0.3 -1.2,1.1l-0.5,2.1l4.6,0l0.5,-2.1Z" style="fill:#ababab;"/><path d="M101.8,41.2c-3,0 -3.6,-1.7 -3,-4.2l1.3,-5.1c0.6,-2.5 2.2,-4.2 5.1,-4.2l6.8,0c0,0 1,-4 1.2,-4.9l6.5,0l-4,15.8c-0.4,1.4 -0.4,1.6 -0.7,2.5l-13.2,0l0,0.1ZM111.1,31.4c0.2,-0.7 0,-1 -0.7,-1l-2.6,0c-0.6,0 -1,0.3 -1.2,1l-1.6,6.1c-0.2,0.7 0,1 0.7,1l2.6,0c0.6,0 1,-0.3 1.1,-1l1.7,-6.1Z" style="fill:#ababab;"/><path d="M117.2,41.2l3.5,-13.4l6.5,0l-3.5,13.4l-6.5,0ZM121,26.5l0.9,-3.5l6.4,0l-0.9,3.5l-6.4,0Z" style="fill:#ababab;"/><path d="M129.4,41.2c-2.9,0 -3.4,-1.3 -2.7,-4.1l0.2,-0.9c0.7,-2.8 1.9,-4.1 4.8,-4.1l7,0c0.1,-0.4 0.1,-0.3 0.2,-0.9c0.2,-0.6 0,-0.9 -0.9,-0.9l-6.7,0l0.7,-2.6l10,0c3.1,0 4,1.3 3,5l-1.5,5.9c-0.4,1.4 -0.4,1.5 -0.7,2.5l-13.4,0l0,0.1ZM138,34.8l-2.9,0c-1,0 -1.4,0.2 -1.7,1.1l-0.4,1.5c-0.3,1 0.1,1.1 1.1,1.1l1.5,0c1.2,0 1.3,0.1 1.8,-1.6l0.6,-2.1Z" style="fill:#ababab;"/></g></svg>