<?xml version="1.0" standalone="no"?><!DOCTYPE svg PUBLIC "-//W3C//DTD SVG 1.1//EN" "http://www.w3.org/Graphics/SVG/1.1/DTD/svg11.dtd"><svg width="100%" height="100%" viewBox="0 0 71 71" version="1.1" xmlns="http://www.w3.org/2000/svg" xmlns:xlink="http://www.w3.org/1999/xlink" xml:space="preserve" style="fill-rule:evenodd;clip-rule:evenodd;stroke-linejoin:round;stroke-miterlimit:1.41421;"><path d="M63,39.9c-0.1,1.1 -0.6,2.9 -0.6,2.9c0,0 -0.5,1.8 -0.9,2.8c-0.4,0.9 -1,1.6 -1.7,1.5c-1.1,-0.1 -3.2,-2.1 -3.6,-2.5c-0.3,-0.4 -3.4,-3.7 -4,-4.4c0,-0.1 0.1,-0.2 0.1,-0.4c0.8,-0.2 5.2,-1.6 5.7,-1.8c0.5,-0.1 3.4,-0.8 4.3,-0.4c0.6,0.4 0.8,1.2 0.7,2.3ZM57.2,53c-0.6,0.9 -2,2.2 -2,2.2c0,0 -1.3,1.3 -2.2,2c-0.8,0.6 -1.7,0.8 -2.2,0.4c-0.9,-0.6 -1.7,-3.4 -1.9,-3.9c-0.1,-0.5 -1.1,-5 -1.3,-5.8c0.1,-0.1 0.2,-0.2 0.2,-0.3c0.8,0.2 5.3,1.2 5.8,1.3c0.5,0.1 3.3,1 4,1.9c0.4,0.6 0.1,1.4 -0.4,2.2ZM47.2,54.3c-0.1,0.2 0,0.4 -0.4,0.7c-0.5,0.3 -0.6,0.1 -0.8,0.1c-0.4,-0.1 -3.5,-2.4 -4.6,-3.2c2,-0.7 3.8,-1.8 5.4,-3.1c0.1,1.2 0.5,5.1 0.4,5.5ZM45.5,61.5c-1,0.5 -2.8,0.9 -2.8,0.9c0,0 -1.8,0.5 -2.9,0.6c-1,0.1 -1.9,-0.1 -2.2,-0.7c-0.4,-1 0.2,-3.8 0.4,-4.4c0.1,-0.4 1.5,-4.8 1.7,-5.7c0.1,0 0.2,-0.1 0.4,-0.1c0.6,0.6 4,3.7 4.3,4c0.4,0.4 2.4,2.5 2.5,3.6c0.2,0.8 -0.5,1.4 -1.4,1.8ZM36.2,57.6c-0.2,0.2 -0.2,0.4 -0.7,0.4c-0.5,0 -0.5,-0.2 -0.7,-0.4c-0.3,-0.2 -1.8,-3.8 -2.4,-5c1,0.2 2,0.3 3.1,0.3c1,0 2.1,-0.1 3.1,-0.3c-0.5,1.2 -2.1,4.7 -2.4,5ZM33.3,62.3c-0.3,0.7 -1.1,0.8 -2.1,0.7c-1.1,-0.1 -2.9,-0.6 -2.9,-0.6c0,0 -1.8,-0.5 -2.8,-0.9c-1,-0.4 -1.6,-1 -1.5,-1.7c0.1,-1.1 2.1,-3.2 2.5,-3.6c0.4,-0.3 3.7,-3.4 4.4,-4c0.1,0 0.2,0.1 0.4,0.1c0.3,0.8 1.6,5.2 1.8,5.7c0,0.5 0.7,3.3 0.2,4.3ZM24.3,48.7c1.6,1.3 3.4,2.4 5.4,3.1c-1.1,0.8 -4.2,3.1 -4.6,3.2c-0.2,0.1 -0.3,0.2 -0.8,-0.1c-0.5,-0.3 -0.4,-0.4 -0.4,-0.7c-0.2,-0.3 0.2,-4.2 0.4,-5.5ZM22.1,53.7c-0.1,0.5 -1,3.3 -1.9,3.9c-0.6,0.4 -1.4,0.1 -2.2,-0.4c-0.9,-0.6 -2.2,-2 -2.2,-2c0,0 -1.3,-1.3 -1.9,-2.2c-0.6,-0.8 -0.9,-1.7 -0.5,-2.2c0.6,-0.9 3.4,-1.7 3.9,-1.9c0.5,-0.1 5,-1.1 5.8,-1.3c0.1,0.1 0.2,0.2 0.3,0.3c-0.2,0.8 -1.2,5.3 -1.3,5.8ZM9.5,45.5c-0.5,-1 -0.9,-2.8 -0.9,-2.8c0,0 -0.5,-1.8 -0.6,-2.8c-0.1,-1 0.1,-1.9 0.7,-2.2c1,-0.5 3.8,0.2 4.3,0.4c0.5,0.1 4.8,1.5 5.7,1.8c0,0.1 0.1,0.2 0.1,0.4c-0.6,0.7 -3.7,4 -4,4.4c-0.4,0.4 -2.5,2.4 -3.6,2.5c-0.7,-0.1 -1.3,-0.8 -1.7,-1.7ZM8,31.1c0.1,-1.1 0.6,-2.9 0.6,-2.9c0,0 0.5,-1.8 0.9,-2.8c0.4,-1 1,-1.6 1.7,-1.5c1.1,0.1 3.2,2.1 3.6,2.5c0.3,0.4 3.4,3.7 4,4.4c0,0.1 -0.1,0.2 -0.1,0.4c-0.8,0.3 -5.2,1.6 -5.7,1.8c-0.5,0.1 -3.4,0.8 -4.3,0.4c-0.6,-0.4 -0.8,-1.2 -0.7,-2.3ZM63.1,31.1c-0.1,-1.1 -0.6,-2.9 -0.6,-2.9c0,0 -0.5,-1.8 -0.9,-2.8c-0.4,-1 -1,-1.6 -1.7,-1.5c-1.1,0.1 -3.2,2.1 -3.6,2.5c-0.3,0.4 -3.4,3.7 -4,4.4c0,0.1 0.1,0.2 0.1,0.4c0.8,0.3 5.2,1.6 5.7,1.8c0.5,0.1 3.4,0.8 4.3,0.4c0.6,-0.4 0.7,-1.2 0.7,-2.3ZM13.8,18c0.6,-0.9 1.9,-2.2 1.9,-2.2c0,0 1.3,-1.3 2.2,-1.9c0.8,-0.6 1.7,-0.9 2.2,-0.5c0.9,0.6 1.7,3.4 1.9,3.9c0.1,0.5 1.1,5 1.3,5.8c-0.1,0.1 -0.2,0.2 -0.3,0.3c-0.8,-0.2 -5.3,-1.2 -5.8,-1.3c-0.5,-0.1 -3.3,-1 -3.9,-1.9c-0.3,-0.6 -0.1,-1.4 0.5,-2.2ZM23.8,16.7c0.1,-0.2 0,-0.4 0.4,-0.7c0.5,-0.3 0.6,-0.1 0.8,-0.1c0.4,0.1 3.5,2.4 4.6,3.2c-2,0.7 -3.8,1.8 -5.4,3.1c-0.1,-1.2 -0.5,-5.1 -0.4,-5.5ZM25.5,9.5c1,-0.5 2.8,-0.9 2.8,-0.9c0,0 1.8,-0.5 2.9,-0.6c1,-0.1 1.9,0.1 2.2,0.7c0.5,1 -0.2,3.8 -0.4,4.3c-0.1,0.5 -1.5,4.8 -1.8,5.7c-0.1,0 -0.2,0.1 -0.4,0.1c-0.6,-0.6 -4,-3.7 -4.4,-4c-0.4,-0.4 -2.4,-2.5 -2.5,-3.6c0,-0.7 0.7,-1.3 1.6,-1.7ZM34.8,13.4c0.2,-0.2 0.2,-0.4 0.7,-0.4c0.5,0 0.5,0.2 0.7,0.4c0.3,0.2 1.9,3.8 2.4,5c-1,-0.2 -2,-0.3 -3.1,-0.3c-1.1,0 -2.1,0.1 -3.1,0.3c0.5,-1.2 2.1,-4.7 2.4,-5ZM37.7,8.7c0.3,-0.7 1.1,-0.8 2.1,-0.7c1.1,0.1 2.9,0.6 2.9,0.6c0,0 1.8,0.5 2.8,0.9c0.9,0.4 1.6,1 1.5,1.7c-0.1,1.1 -2.1,3.2 -2.5,3.6c-0.3,0.4 -3.7,3.4 -4.3,4c-0.1,0 -0.2,-0.1 -0.4,-0.1c-0.2,-0.8 -1.6,-5.2 -1.7,-5.7c-0.2,-0.5 -0.9,-3.3 -0.4,-4.3ZM46.7,22.3c-1.6,-1.3 -3.4,-2.4 -5.4,-3.1c1.1,-0.8 4.2,-3.1 4.6,-3.2c0.2,-0.1 0.4,-0.2 0.8,0.1c0.5,0.3 0.4,0.4 0.4,0.7c0.2,0.3 -0.2,4.2 -0.4,5.5ZM48.7,24.3c1.3,-0.1 5.2,-0.6 5.5,-0.5c0.2,0.1 0.4,0 0.7,0.5c0.3,0.5 0.1,0.6 0,0.8c-0.1,0.4 -2.4,3.5 -3.2,4.6c-0.6,-2 -1.6,-3.8 -3,-5.4ZM52.6,32.4c1.2,0.5 4.8,2.1 5.1,2.4c0,0.2 0.3,0.2 0.3,0.7c0,0.5 -0.2,0.5 -0.4,0.7c-0.3,0.3 -3.9,1.9 -5.1,2.4c0.2,-1 0.3,-2 0.3,-3.1c0,-1.1 -0.1,-2.1 -0.2,-3.1ZM51.8,41.4c0.8,1 3.1,4.2 3.2,4.6c0.1,0.2 0.2,0.3 0,0.8c-0.3,0.5 -0.5,0.4 -0.7,0.4c-0.4,0.1 -4.3,-0.3 -5.5,-0.5c1.3,-1.6 2.3,-3.4 3,-5.3ZM22.3,46.7c-1.3,0.1 -5.2,0.6 -5.5,0.5c-0.2,-0.1 -0.4,0 -0.7,-0.5c-0.3,-0.5 -0.1,-0.6 -0.1,-0.8c0.1,-0.4 2.4,-3.5 3.2,-4.6c0.7,2 1.7,3.8 3.1,5.4ZM18.4,38.6c-1.2,-0.5 -4.8,-2.1 -5.1,-2.4c0,-0.2 -0.3,-0.2 -0.3,-0.7c0,-0.5 0.2,-0.5 0.4,-0.7c0.2,-0.3 3.8,-1.9 5.1,-2.4c-0.2,1 -0.3,2 -0.3,3.1c-0.1,1.1 0.1,2.1 0.2,3.1ZM19.2,29.6c-0.8,-1 -3.1,-4.2 -3.2,-4.6c0,-0.2 -0.2,-0.3 0.1,-0.8c0.3,-0.5 0.5,-0.4 0.7,-0.5c0.4,-0.1 4.2,0.3 5.5,0.5c-1.4,1.7 -2.4,3.5 -3.1,5.4ZM35.5,51.6c-8.9,0 -16.2,-7.2 -16.2,-16.1c0,-8.9 7.2,-16.2 16.2,-16.2c8.9,0 16.2,7.2 16.2,16.2c0,8.9 -7.3,16.1 -16.2,16.1ZM48.9,17.3c0.1,-0.5 1,-3.3 1.9,-3.9c0.6,-0.4 1.4,-0.1 2.2,0.5c0.9,0.6 2.2,1.9 2.2,1.9c0,0 1.3,1.3 2,2.2c0.6,0.8 0.8,1.7 0.5,2.2c-0.6,0.9 -3.4,1.7 -4,1.9c-0.5,0.1 -4.9,1.1 -5.8,1.3c-0.1,-0.1 -0.2,-0.2 -0.2,-0.3c0.1,-0.8 1.1,-5.3 1.2,-5.8ZM65.9,33.3c-2.2,-2.4 -3.6,-8 -3,-11.2c0.3,-1.6 1.8,-2.3 3.9,-3.5l-1.1,-1.9c-2,1.1 -3.4,2.1 -4.9,1.6c-3.1,-1 -7.1,-5.1 -8.1,-8.2c-0.5,-1.6 0.4,-2.9 1.6,-4.9l-1.9,-1.1c-1.2,2 -1.9,3.5 -3.5,3.9c-3.2,0.7 -8.7,-0.8 -11.2,-3c-1.2,-1 -1.1,-2.7 -1.1,-5l-2.2,0c0,2.4 0.1,4 -1.1,5.1c-2.4,2.2 -8,3.7 -11.1,3c-1.6,-0.3 -2.3,-1.8 -3.5,-3.8l-1.9,1.1c1.2,2 2.1,3.4 1.6,4.9c-1,3.1 -5.1,7.1 -8.2,8.2c-1.5,0.5 -2.9,-0.4 -4.9,-1.6l-1.1,1.9c2,1.2 3.5,1.9 3.9,3.5c0.7,3.2 -0.8,8.7 -3,11.2c-1.1,1.1 -2.8,0.9 -5.1,0.9l0,2.2c2.3,0 4,-0.1 5.1,1.1c2.2,2.5 3.7,8 3,11.2c-0.3,1.6 -1.8,2.3 -3.9,3.5l1.1,1.9c2,-1.2 3.4,-2.1 4.9,-1.6c3.1,1 7.1,5.1 8.2,8.2c0.5,1.6 -0.4,2.9 -1.6,4.9l1.9,1.1c1.1,-2 1.9,-3.5 3.5,-3.9c3.2,-0.7 8.7,0.8 11.1,3c1.2,1.1 1.1,2.7 1.1,5.1l2.2,0c0,-2.4 -0.1,-4 1.1,-5.1c2.5,-2.2 8,-3.6 11.2,-3c1.6,0.3 2.3,1.8 3.5,3.9l1.9,-1.1c-1.2,-2 -2.1,-3.4 -1.6,-4.9c1,-3.1 5.1,-7.1 8.2,-8.2c1.6,-0.5 2.9,0.4 4.9,1.6l1.1,-1.9c-2,-1.2 -3.5,-1.9 -3.9,-3.5c-0.7,-3.2 0.8,-8.7 3,-11.2c1.1,-1.2 2.8,-1.1 5.1,-1.1l0,-2.2c-2.4,0 -4.1,0.2 -5.2,-1.1ZM45.1,31.6l0,-1c0,-0.6 0.2,-1.1 1,-1.1l1.2,0l0,-2.2c-0.2,0 -1.1,0 -1.9,0c-1.8,0 -3,0.8 -3,2.9l0,1.4l-0.4,0l-5,0c-3.1,0 -4.1,1.3 -4.1,2.8c0,3.7 6.1,3.1 6.1,4.5c0,0.4 -0.4,0.8 -1.7,0.8l-5.1,0l0,-5c0,-2.2 -1.6,-3.3 -3.7,-3.3c-1.9,0 -2.7,1 -3.1,1.7l-0.1,0l0,-1.5l-2.5,0l0,10.1l2.7,0l0,-5.7c0,-1.6 0.9,-2.4 2.1,-2.4c1.9,0 2,1.3 2,2l0,6.2l7.7,0c2.1,0 4.4,-0.7 4.4,-3c0,-3 -6.2,-2.8 -6.2,-4.2c0,-0.4 0.3,-1.1 1.8,-1.1l5.2,0l0,8.3l2.7,0l0,-8.3l2.2,0l0,-1.9l-2.3,0Z" style="fill:#ababab;"/></svg>