<?xml version="1.0" standalone="no"?><!DOCTYPE svg PUBLIC "-//W3C//DTD SVG 1.1//EN" "http://www.w3.org/Graphics/SVG/1.1/DTD/svg11.dtd"><svg width="100%" height="100%" viewBox="0 0 125 78" version="1.1" xmlns="http://www.w3.org/2000/svg" xmlns:xlink="http://www.w3.org/1999/xlink" xml:space="preserve" style="fill-rule:evenodd;clip-rule:evenodd;stroke-linejoin:round;stroke-miterlimit:1.41421;"><g><path d="M43.2,13.3c-0.2,-0.7 -0.3,-1.2 -0.3,-1.9c0,-2.8 1.9,-5.4 5.3,-5.4c0.8,0 1.4,0.1 2,0.3c0.6,-0.5 1.2,-0.9 1.9,-1.3c-1.1,-0.7 -2.5,-1 -3.9,-1c-4.2,0 -7.7,3.3 -7.7,7.5c0,1.4 0.5,2.8 1.1,4c0.2,-0.3 0.4,-0.6 0.6,-0.8c0.3,-0.6 0.7,-1 1,-1.4Z" style="fill:#ababab;"/><path d="M53.4,5.9c-0.7,0.4 -1.2,0.8 -1.8,1.2c1.2,0.9 1.9,2.6 1.9,4.3c0,2.8 -2.1,5.3 -5.3,5.3c-1.8,0 -3.2,-0.8 -4.2,-2c-0.2,0.3 -0.4,0.5 -0.6,0.8c-0.3,0.4 -0.6,0.8 -0.8,1.1c1.4,1.3 3.3,2.2 5.5,2.2c4.3,0 7.7,-3.2 7.7,-7.4c0.1,-2.2 -0.9,-4.2 -2.4,-5.5Z" style="fill:#ababab;"/><path d="M39.9,30.7c0,2.3 -1.3,4.3 -3.3,5l0,2.2c3.2,-0.9 5.7,-3.7 5.7,-7.3c0,-2.6 -1.4,-4.8 -3.5,-6.3c-0.3,0.8 -0.5,1.4 -0.8,2.1c1.2,1.2 1.9,2.7 1.9,4.3Z" style="fill:#ababab;"/><path d="M35,36.1c-0.2,0 -0.4,0 -0.5,0c-3.2,0 -5.4,-2.5 -5.4,-5.4c0,-2.7 1.9,-5.3 5.4,-5.3c0.8,0 1.5,0.1 2.1,0.4c0.2,-0.7 0.4,-1.3 0.7,-2c-0.9,-0.3 -1.8,-0.5 -2.7,-0.5c-4.3,0 -7.7,3.3 -7.7,7.4c0,4.3 3.4,7.5 7.7,7.5c0.1,0 0.3,0 0.5,0c0,-0.4 -0.1,-0.9 -0.1,-1.2c-0.1,-0.3 0,-0.6 0,-0.9Z" style="fill:#ababab;"/><path d="M40.1,44.9c3.4,0 5.3,2.6 5.3,5.3c0,2.5 -1.5,4.6 -3.9,5.2c0.4,0.7 0.8,1.2 1.1,1.9c2.9,-1 5.1,-3.7 5.1,-7.1c0,-4.1 -3.5,-7.4 -7.7,-7.4c-1,0 -2.1,0.2 -2.9,0.6c0.1,0.7 0.2,1.4 0.4,2.1c0.8,-0.4 1.6,-0.6 2.6,-0.6Z" style="fill:#ababab;"/><path d="M34.8,50.2c0,-1.4 0.5,-2.7 1.4,-3.8c-0.2,-0.8 -0.4,-1.5 -0.5,-2.3c-2,1.3 -3.3,3.6 -3.3,6.1c0,4.3 3.4,7.5 7.7,7.5c0.3,0 0.7,0 0.9,-0.1c-0.4,-0.7 -0.9,-1.3 -1.2,-2c-3.1,-0.2 -5,-2.4 -5,-5.4Z" style="fill:#ababab;"/><path d="M100.5,66.8c-7.2,5.8 -16.2,9 -25.5,9c-9.6,0 -18.7,-3.3 -25.9,-9.4l-1.1,1.3c7.5,6.3 17.1,9.8 27.1,9.8c9.8,0 19.1,-3.4 26.6,-9.5l-1.2,-1.2Z" style="fill:#ababab;"/><path d="M77.3,43.1l0,8.6c0,2 -0.7,3.9 -3.2,3.9c-2.6,0 -3.2,-1.9 -3.2,-3.9l0,-8.6l-2.4,0l0,9.1c0,3.1 2,5.5 5.6,5.5c3.6,0 5.6,-2.4 5.6,-5.5l0,-9.1l-2.4,0Z" style="fill:#ababab;"/><path d="M79.2,16.5l6.4,0l0,2l-8.8,0l0,-14.3l2.4,0l0,12.3Z" style="fill:#ababab;"/><path d="M0,23.6l8.3,0l0,2.1l-5.9,0l0,3.4l5.8,0l0,2.1l-5.8,0l0,4.6l5.9,0l0,2.1l-8.3,0l0,-14.3Z" style="fill:#ababab;"/><path d="M47.1,22.9l9.8,10.1l0,-9.4l2.4,0l0,14.9l-9.9,-10l0,9.4l-2.3,0l0,-15Z" style="fill:#ababab;"/><rect x="105.8" y="23.6" width="2.3" height="14.3" style="fill:#ababab;"/><path d="M23,45.2l0,3.4l5.1,0l0,2l-5.1,0l0,6.8l-2.4,0l0,-14.3l7.7,0l0,2.1l-5.3,0Z" style="fill:#ababab;"/><path d="M32.5,13.1l0.1,0l2.2,-8.9l2.3,0l-4,14.9l-5,-10.7l-5,10.7l-4.1,-14.9l2.4,0l2.3,8.9l4.4,-9.2l4.4,9.2Z" style="fill:#ababab;"/><path d="M87.2,29l-0.1,0l-2.3,8.9l-2.2,0l4,-14.9l5,10.8l5,-10.8l4.1,14.9l-2.4,0l-2.3,-8.9l-0.1,0l-4.3,9.3l-4.4,-9.3Z" style="fill:#ababab;"/><path d="M88.4,48.5l-2.2,8.9l-2.4,0l4,-14.8l5.1,10.7l5,-10.7l4,14.8l-2.4,0l-2.2,-8.9l-4.4,9.2l-4.5,-9.2Z" style="fill:#ababab;"/><path d="M55.1,49.5l1,0c1.9,0 4.2,0.1 4.2,-2.2c0,-2.3 -2.4,-2.2 -4.3,-2.2l-0.9,0l0,4.4ZM56.6,43.1c1.3,0 2.8,0 4,0.7c1.2,0.7 2,2.1 2,3.4c0,2.1 -1.4,3.8 -3.5,4l4.5,6.3l-2.6,0l-4.3,-6.1l-1.6,0l0,6.1l-2.4,0l0,-14.4l3.9,0Z" style="fill:#ababab;"/><path d="M63.2,10.5l1,0c1.9,0 4.1,0.1 4.1,-2.2c0,-2.3 -2.4,-2.2 -4.2,-2.2l-0.9,0l0,4.4ZM64.7,4.2c1.3,0 2.8,0 4,0.7c1.2,0.7 1.9,2.1 1.9,3.4c0,2.1 -1.3,3.8 -3.5,4l4.6,6.3l-2.7,0l-4.4,-6.1l-1.5,0l0,6.1l-2.4,0l0,-14.4l4,0Z" style="fill:#ababab;"/><path d="M89.8,4.2l3.9,0c4.5,0 8.2,2.2 8.2,7.1c0,4.9 -3.6,7.2 -8.2,7.2l-3.9,0l0,-14.3ZM92.1,16.5l1.3,0c3.1,0 6.1,-1.1 6.1,-5.2c0,-4.2 -2.9,-5.1 -6.1,-5.1l-1.3,0l0,10.3Z" style="fill:#ababab;"/><path d="M123.8,35.4c-0.8,0.5 -1.6,0.7 -2.7,0.7c-3.1,0 -5.3,-2.4 -5.3,-5.3c0,-2.8 1.9,-5.4 5.3,-5.4c1,0 1.9,0.2 2.7,0.6l1.1,-1.7c-1,-0.6 -2.4,-0.9 -3.8,-0.9c-4.2,0 -7.7,3.3 -7.7,7.5c0,4.2 3.5,7.4 7.7,7.4c1.4,0 2.7,-0.3 3.9,-0.9l-1.2,-2Z" style="fill:#ababab;"/><path d="M23.1,35.4c-0.8,0.5 -1.6,0.7 -2.6,0.7c-3.2,0 -5.4,-2.4 -5.4,-5.3c0,-2.8 1.9,-5.4 5.4,-5.4c0.9,0 1.8,0.2 2.6,0.6l1.2,-1.7c-1.1,-0.6 -2.5,-0.9 -3.8,-0.9c-4.3,0 -7.7,3.3 -7.7,7.5c0,4.2 3.4,7.4 7.7,7.4c1.3,0 2.7,-0.3 3.8,-0.9l-1.2,-2Z" style="fill:#ababab;"/><path d="M100.1,66.4c-7,5.8 -15.9,8.9 -25.1,8.9c-10.5,0 -20.4,-4 -27.7,-11.3c-7.4,-7.1 -11.5,-16.8 -11.5,-27c0,-7.9 2.4,-15.5 7,-22c4.5,-6.4 10.8,-11.1 18.2,-13.8l-0.3,-0.8c-7.5,2.8 -13.9,7.7 -18.5,14.1c-4.7,6.6 -7.3,14.4 -7.3,22.4c0,10.4 4.2,20.3 11.7,27.7c7.7,7.4 17.7,11.5 28.4,11.5c9.4,0 18.5,-3.2 25.6,-9.1l-0.5,-0.6Z" style="fill:#ababab;"/><path d="M79.5,30.8c0,4.2 -3.5,7.4 -7.7,7.4c-4.3,0 -7.7,-3.2 -7.7,-7.4c0,-4.2 3.4,-7.5 7.7,-7.5c4.2,0 7.7,3.3 7.7,7.5ZM77.2,30.8c0,-2.8 -1.9,-5.4 -5.3,-5.4c-3.5,0 -5.4,2.6 -5.4,5.4c0,2.9 2.2,5.3 5.4,5.3c3.1,0 5.3,-2.4 5.3,-5.3Z" style="fill:#ababab;"/></g></svg>